%
M48
M72
T01C0.03200
T02C0.04291
T03C0.05512
T04C0.12598
%
T01
X13531Y121800
X13531Y141800
X28531Y141800
X28531Y121800
X98531Y121800
X98531Y141800
X113531Y126800
X113531Y86800
T02
X38531Y81800
X48531Y81800
X58531Y81800
X68531Y81800
X78531Y81800
X88531Y81800
T03
X55263Y115146
X71799Y115146
X71799Y136800
X55263Y136800
T04
X18531Y31800
X108531Y31800
M30
