G75*
%MOIN*%
%OFA0B0*%
%FSLAX25Y25*%
%IPPOS*%
%LPD*%
%AMOC8*
5,1,8,0,0,1.08239X$1,22.5*
%
%ADD10C,0.00000*%
%ADD11OC8,0.05200*%
%ADD12R,0.08268X0.08268*%
%ADD13R,0.06457X0.06457*%
%ADD14C,0.06457*%
D10*
X0003531Y0001800D02*
X0003531Y0149261D01*
X0124732Y0149261D01*
X0124732Y0001800D01*
X0003531Y0001800D01*
X0012232Y0031800D02*
X0012234Y0031958D01*
X0012240Y0032116D01*
X0012250Y0032274D01*
X0012264Y0032432D01*
X0012282Y0032589D01*
X0012303Y0032746D01*
X0012329Y0032902D01*
X0012359Y0033058D01*
X0012392Y0033213D01*
X0012430Y0033366D01*
X0012471Y0033519D01*
X0012516Y0033671D01*
X0012565Y0033822D01*
X0012618Y0033971D01*
X0012674Y0034119D01*
X0012734Y0034265D01*
X0012798Y0034410D01*
X0012866Y0034553D01*
X0012937Y0034695D01*
X0013011Y0034835D01*
X0013089Y0034972D01*
X0013171Y0035108D01*
X0013255Y0035242D01*
X0013344Y0035373D01*
X0013435Y0035502D01*
X0013530Y0035629D01*
X0013627Y0035754D01*
X0013728Y0035876D01*
X0013832Y0035995D01*
X0013939Y0036112D01*
X0014049Y0036226D01*
X0014162Y0036337D01*
X0014277Y0036446D01*
X0014395Y0036551D01*
X0014516Y0036653D01*
X0014639Y0036753D01*
X0014765Y0036849D01*
X0014893Y0036942D01*
X0015023Y0037032D01*
X0015156Y0037118D01*
X0015291Y0037202D01*
X0015427Y0037281D01*
X0015566Y0037358D01*
X0015707Y0037430D01*
X0015849Y0037500D01*
X0015993Y0037565D01*
X0016139Y0037627D01*
X0016286Y0037685D01*
X0016435Y0037740D01*
X0016585Y0037791D01*
X0016736Y0037838D01*
X0016888Y0037881D01*
X0017041Y0037920D01*
X0017196Y0037956D01*
X0017351Y0037987D01*
X0017507Y0038015D01*
X0017663Y0038039D01*
X0017820Y0038059D01*
X0017978Y0038075D01*
X0018135Y0038087D01*
X0018294Y0038095D01*
X0018452Y0038099D01*
X0018610Y0038099D01*
X0018768Y0038095D01*
X0018927Y0038087D01*
X0019084Y0038075D01*
X0019242Y0038059D01*
X0019399Y0038039D01*
X0019555Y0038015D01*
X0019711Y0037987D01*
X0019866Y0037956D01*
X0020021Y0037920D01*
X0020174Y0037881D01*
X0020326Y0037838D01*
X0020477Y0037791D01*
X0020627Y0037740D01*
X0020776Y0037685D01*
X0020923Y0037627D01*
X0021069Y0037565D01*
X0021213Y0037500D01*
X0021355Y0037430D01*
X0021496Y0037358D01*
X0021635Y0037281D01*
X0021771Y0037202D01*
X0021906Y0037118D01*
X0022039Y0037032D01*
X0022169Y0036942D01*
X0022297Y0036849D01*
X0022423Y0036753D01*
X0022546Y0036653D01*
X0022667Y0036551D01*
X0022785Y0036446D01*
X0022900Y0036337D01*
X0023013Y0036226D01*
X0023123Y0036112D01*
X0023230Y0035995D01*
X0023334Y0035876D01*
X0023435Y0035754D01*
X0023532Y0035629D01*
X0023627Y0035502D01*
X0023718Y0035373D01*
X0023807Y0035242D01*
X0023891Y0035108D01*
X0023973Y0034972D01*
X0024051Y0034835D01*
X0024125Y0034695D01*
X0024196Y0034553D01*
X0024264Y0034410D01*
X0024328Y0034265D01*
X0024388Y0034119D01*
X0024444Y0033971D01*
X0024497Y0033822D01*
X0024546Y0033671D01*
X0024591Y0033519D01*
X0024632Y0033366D01*
X0024670Y0033213D01*
X0024703Y0033058D01*
X0024733Y0032902D01*
X0024759Y0032746D01*
X0024780Y0032589D01*
X0024798Y0032432D01*
X0024812Y0032274D01*
X0024822Y0032116D01*
X0024828Y0031958D01*
X0024830Y0031800D01*
X0024828Y0031642D01*
X0024822Y0031484D01*
X0024812Y0031326D01*
X0024798Y0031168D01*
X0024780Y0031011D01*
X0024759Y0030854D01*
X0024733Y0030698D01*
X0024703Y0030542D01*
X0024670Y0030387D01*
X0024632Y0030234D01*
X0024591Y0030081D01*
X0024546Y0029929D01*
X0024497Y0029778D01*
X0024444Y0029629D01*
X0024388Y0029481D01*
X0024328Y0029335D01*
X0024264Y0029190D01*
X0024196Y0029047D01*
X0024125Y0028905D01*
X0024051Y0028765D01*
X0023973Y0028628D01*
X0023891Y0028492D01*
X0023807Y0028358D01*
X0023718Y0028227D01*
X0023627Y0028098D01*
X0023532Y0027971D01*
X0023435Y0027846D01*
X0023334Y0027724D01*
X0023230Y0027605D01*
X0023123Y0027488D01*
X0023013Y0027374D01*
X0022900Y0027263D01*
X0022785Y0027154D01*
X0022667Y0027049D01*
X0022546Y0026947D01*
X0022423Y0026847D01*
X0022297Y0026751D01*
X0022169Y0026658D01*
X0022039Y0026568D01*
X0021906Y0026482D01*
X0021771Y0026398D01*
X0021635Y0026319D01*
X0021496Y0026242D01*
X0021355Y0026170D01*
X0021213Y0026100D01*
X0021069Y0026035D01*
X0020923Y0025973D01*
X0020776Y0025915D01*
X0020627Y0025860D01*
X0020477Y0025809D01*
X0020326Y0025762D01*
X0020174Y0025719D01*
X0020021Y0025680D01*
X0019866Y0025644D01*
X0019711Y0025613D01*
X0019555Y0025585D01*
X0019399Y0025561D01*
X0019242Y0025541D01*
X0019084Y0025525D01*
X0018927Y0025513D01*
X0018768Y0025505D01*
X0018610Y0025501D01*
X0018452Y0025501D01*
X0018294Y0025505D01*
X0018135Y0025513D01*
X0017978Y0025525D01*
X0017820Y0025541D01*
X0017663Y0025561D01*
X0017507Y0025585D01*
X0017351Y0025613D01*
X0017196Y0025644D01*
X0017041Y0025680D01*
X0016888Y0025719D01*
X0016736Y0025762D01*
X0016585Y0025809D01*
X0016435Y0025860D01*
X0016286Y0025915D01*
X0016139Y0025973D01*
X0015993Y0026035D01*
X0015849Y0026100D01*
X0015707Y0026170D01*
X0015566Y0026242D01*
X0015427Y0026319D01*
X0015291Y0026398D01*
X0015156Y0026482D01*
X0015023Y0026568D01*
X0014893Y0026658D01*
X0014765Y0026751D01*
X0014639Y0026847D01*
X0014516Y0026947D01*
X0014395Y0027049D01*
X0014277Y0027154D01*
X0014162Y0027263D01*
X0014049Y0027374D01*
X0013939Y0027488D01*
X0013832Y0027605D01*
X0013728Y0027724D01*
X0013627Y0027846D01*
X0013530Y0027971D01*
X0013435Y0028098D01*
X0013344Y0028227D01*
X0013255Y0028358D01*
X0013171Y0028492D01*
X0013089Y0028628D01*
X0013011Y0028765D01*
X0012937Y0028905D01*
X0012866Y0029047D01*
X0012798Y0029190D01*
X0012734Y0029335D01*
X0012674Y0029481D01*
X0012618Y0029629D01*
X0012565Y0029778D01*
X0012516Y0029929D01*
X0012471Y0030081D01*
X0012430Y0030234D01*
X0012392Y0030387D01*
X0012359Y0030542D01*
X0012329Y0030698D01*
X0012303Y0030854D01*
X0012282Y0031011D01*
X0012264Y0031168D01*
X0012250Y0031326D01*
X0012240Y0031484D01*
X0012234Y0031642D01*
X0012232Y0031800D01*
X0102232Y0031800D02*
X0102234Y0031958D01*
X0102240Y0032116D01*
X0102250Y0032274D01*
X0102264Y0032432D01*
X0102282Y0032589D01*
X0102303Y0032746D01*
X0102329Y0032902D01*
X0102359Y0033058D01*
X0102392Y0033213D01*
X0102430Y0033366D01*
X0102471Y0033519D01*
X0102516Y0033671D01*
X0102565Y0033822D01*
X0102618Y0033971D01*
X0102674Y0034119D01*
X0102734Y0034265D01*
X0102798Y0034410D01*
X0102866Y0034553D01*
X0102937Y0034695D01*
X0103011Y0034835D01*
X0103089Y0034972D01*
X0103171Y0035108D01*
X0103255Y0035242D01*
X0103344Y0035373D01*
X0103435Y0035502D01*
X0103530Y0035629D01*
X0103627Y0035754D01*
X0103728Y0035876D01*
X0103832Y0035995D01*
X0103939Y0036112D01*
X0104049Y0036226D01*
X0104162Y0036337D01*
X0104277Y0036446D01*
X0104395Y0036551D01*
X0104516Y0036653D01*
X0104639Y0036753D01*
X0104765Y0036849D01*
X0104893Y0036942D01*
X0105023Y0037032D01*
X0105156Y0037118D01*
X0105291Y0037202D01*
X0105427Y0037281D01*
X0105566Y0037358D01*
X0105707Y0037430D01*
X0105849Y0037500D01*
X0105993Y0037565D01*
X0106139Y0037627D01*
X0106286Y0037685D01*
X0106435Y0037740D01*
X0106585Y0037791D01*
X0106736Y0037838D01*
X0106888Y0037881D01*
X0107041Y0037920D01*
X0107196Y0037956D01*
X0107351Y0037987D01*
X0107507Y0038015D01*
X0107663Y0038039D01*
X0107820Y0038059D01*
X0107978Y0038075D01*
X0108135Y0038087D01*
X0108294Y0038095D01*
X0108452Y0038099D01*
X0108610Y0038099D01*
X0108768Y0038095D01*
X0108927Y0038087D01*
X0109084Y0038075D01*
X0109242Y0038059D01*
X0109399Y0038039D01*
X0109555Y0038015D01*
X0109711Y0037987D01*
X0109866Y0037956D01*
X0110021Y0037920D01*
X0110174Y0037881D01*
X0110326Y0037838D01*
X0110477Y0037791D01*
X0110627Y0037740D01*
X0110776Y0037685D01*
X0110923Y0037627D01*
X0111069Y0037565D01*
X0111213Y0037500D01*
X0111355Y0037430D01*
X0111496Y0037358D01*
X0111635Y0037281D01*
X0111771Y0037202D01*
X0111906Y0037118D01*
X0112039Y0037032D01*
X0112169Y0036942D01*
X0112297Y0036849D01*
X0112423Y0036753D01*
X0112546Y0036653D01*
X0112667Y0036551D01*
X0112785Y0036446D01*
X0112900Y0036337D01*
X0113013Y0036226D01*
X0113123Y0036112D01*
X0113230Y0035995D01*
X0113334Y0035876D01*
X0113435Y0035754D01*
X0113532Y0035629D01*
X0113627Y0035502D01*
X0113718Y0035373D01*
X0113807Y0035242D01*
X0113891Y0035108D01*
X0113973Y0034972D01*
X0114051Y0034835D01*
X0114125Y0034695D01*
X0114196Y0034553D01*
X0114264Y0034410D01*
X0114328Y0034265D01*
X0114388Y0034119D01*
X0114444Y0033971D01*
X0114497Y0033822D01*
X0114546Y0033671D01*
X0114591Y0033519D01*
X0114632Y0033366D01*
X0114670Y0033213D01*
X0114703Y0033058D01*
X0114733Y0032902D01*
X0114759Y0032746D01*
X0114780Y0032589D01*
X0114798Y0032432D01*
X0114812Y0032274D01*
X0114822Y0032116D01*
X0114828Y0031958D01*
X0114830Y0031800D01*
X0114828Y0031642D01*
X0114822Y0031484D01*
X0114812Y0031326D01*
X0114798Y0031168D01*
X0114780Y0031011D01*
X0114759Y0030854D01*
X0114733Y0030698D01*
X0114703Y0030542D01*
X0114670Y0030387D01*
X0114632Y0030234D01*
X0114591Y0030081D01*
X0114546Y0029929D01*
X0114497Y0029778D01*
X0114444Y0029629D01*
X0114388Y0029481D01*
X0114328Y0029335D01*
X0114264Y0029190D01*
X0114196Y0029047D01*
X0114125Y0028905D01*
X0114051Y0028765D01*
X0113973Y0028628D01*
X0113891Y0028492D01*
X0113807Y0028358D01*
X0113718Y0028227D01*
X0113627Y0028098D01*
X0113532Y0027971D01*
X0113435Y0027846D01*
X0113334Y0027724D01*
X0113230Y0027605D01*
X0113123Y0027488D01*
X0113013Y0027374D01*
X0112900Y0027263D01*
X0112785Y0027154D01*
X0112667Y0027049D01*
X0112546Y0026947D01*
X0112423Y0026847D01*
X0112297Y0026751D01*
X0112169Y0026658D01*
X0112039Y0026568D01*
X0111906Y0026482D01*
X0111771Y0026398D01*
X0111635Y0026319D01*
X0111496Y0026242D01*
X0111355Y0026170D01*
X0111213Y0026100D01*
X0111069Y0026035D01*
X0110923Y0025973D01*
X0110776Y0025915D01*
X0110627Y0025860D01*
X0110477Y0025809D01*
X0110326Y0025762D01*
X0110174Y0025719D01*
X0110021Y0025680D01*
X0109866Y0025644D01*
X0109711Y0025613D01*
X0109555Y0025585D01*
X0109399Y0025561D01*
X0109242Y0025541D01*
X0109084Y0025525D01*
X0108927Y0025513D01*
X0108768Y0025505D01*
X0108610Y0025501D01*
X0108452Y0025501D01*
X0108294Y0025505D01*
X0108135Y0025513D01*
X0107978Y0025525D01*
X0107820Y0025541D01*
X0107663Y0025561D01*
X0107507Y0025585D01*
X0107351Y0025613D01*
X0107196Y0025644D01*
X0107041Y0025680D01*
X0106888Y0025719D01*
X0106736Y0025762D01*
X0106585Y0025809D01*
X0106435Y0025860D01*
X0106286Y0025915D01*
X0106139Y0025973D01*
X0105993Y0026035D01*
X0105849Y0026100D01*
X0105707Y0026170D01*
X0105566Y0026242D01*
X0105427Y0026319D01*
X0105291Y0026398D01*
X0105156Y0026482D01*
X0105023Y0026568D01*
X0104893Y0026658D01*
X0104765Y0026751D01*
X0104639Y0026847D01*
X0104516Y0026947D01*
X0104395Y0027049D01*
X0104277Y0027154D01*
X0104162Y0027263D01*
X0104049Y0027374D01*
X0103939Y0027488D01*
X0103832Y0027605D01*
X0103728Y0027724D01*
X0103627Y0027846D01*
X0103530Y0027971D01*
X0103435Y0028098D01*
X0103344Y0028227D01*
X0103255Y0028358D01*
X0103171Y0028492D01*
X0103089Y0028628D01*
X0103011Y0028765D01*
X0102937Y0028905D01*
X0102866Y0029047D01*
X0102798Y0029190D01*
X0102734Y0029335D01*
X0102674Y0029481D01*
X0102618Y0029629D01*
X0102565Y0029778D01*
X0102516Y0029929D01*
X0102471Y0030081D01*
X0102430Y0030234D01*
X0102392Y0030387D01*
X0102359Y0030542D01*
X0102329Y0030698D01*
X0102303Y0030854D01*
X0102282Y0031011D01*
X0102264Y0031168D01*
X0102250Y0031326D01*
X0102240Y0031484D01*
X0102234Y0031642D01*
X0102232Y0031800D01*
D11*
X0113531Y0086800D03*
X0098531Y0121800D03*
X0098531Y0141800D03*
X0113531Y0126800D03*
X0028531Y0121800D03*
X0028531Y0141800D03*
X0013531Y0141800D03*
X0013531Y0121800D03*
D12*
X0055263Y0115146D03*
X0071799Y0115146D03*
X0071799Y0136800D03*
X0055263Y0136800D03*
D13*
X0088531Y0081800D03*
D14*
X0078531Y0081800D03*
X0068531Y0081800D03*
X0058531Y0081800D03*
X0048531Y0081800D03*
X0038531Y0081800D03*
M02*
