M48
; DRILL file {KiCad (5.1.0)-1} date 11/05/2020 20:58:45
; FORMAT={-:-/ absolute / inch / decimal}
; #@! TF.CreationDate,2020-05-11T20:58:45-03:00
; #@! TF.GenerationSoftware,Kicad,Pcbnew,(5.1.0)-1
; #@! TF.FileFunction,Plated,1,2,PTH
FMAT,2
INCH
T1C0.0150
T2C0.0197
T3C0.0315
T4C0.0354
T5C0.0394
T6C0.0394
T7C0.0433
T8C0.0472
T9C0.0512
T10C0.0728
T11C0.1299
T12C0.1378
%
G90
G05
T1
X3.2625Y-5.425
X3.2875Y-2.9
X3.3Y-3.2625
X3.325Y-5.425
X3.45Y-3.2625
X3.475Y-3.9
X3.5125Y-3.1375
X3.5375Y-3.2375
X3.5625Y-4.8375
X3.5625Y-4.975
X3.5625Y-5.075
X3.575Y-4.475
X3.5875Y-5.35
X3.625Y-3.7375
X3.6375Y-3.225
X3.6475Y-3.6183
X3.6875Y-4.475
X3.6881Y-3.2289
X3.7Y-3.3875
X3.7375Y-3.1625
X3.7375Y-3.9875
X3.75Y-4.125
X3.75Y-4.4875
X3.7625Y-4.2875
X3.7907Y-3.1959
X3.8125Y-3.625
X3.8125Y-4.5625
X3.8375Y-3.1625
X3.85Y-3.4875
X3.8875Y-3.5875
X3.8875Y-3.64
X3.8875Y-5.225
X3.9Y-4.2125
X3.9Y-4.375
X3.9Y-4.5125
X3.9Y-4.85
X3.9375Y-3.45
X3.94Y-3.71
X3.95Y-4.6375
X3.9625Y-4.0375
X3.975Y-4.225
X3.975Y-4.4
X4.0Y-4.8875
X4.0Y-5.0375
X4.0Y-5.1
X4.0125Y-3.3375
X4.05Y-3.1625
X4.05Y-4.975
X4.0875Y-5.225
X4.1Y-3.525
X4.1Y-5.0375
X4.125Y-3.1872
X4.1625Y-3.1625
X4.1625Y-4.9375
X4.175Y-2.9
X4.2Y-4.65
X4.2125Y-3.5125
X4.2125Y-4.1375
X4.25Y-4.075
X4.25Y-5.225
X4.2625Y-4.7375
X4.2625Y-5.0
X4.2671Y-3.2954
X4.2875Y-3.9625
X4.2898Y-4.0935
X4.3125Y-3.3
X4.3125Y-3.4
X4.325Y-3.525
X4.325Y-3.9875
X4.325Y-4.7125
X4.3261Y-2.9864
X4.3375Y-3.1625
X4.3375Y-4.9875
X4.35Y-3.0875
X4.35Y-4.2375
X4.35Y-4.35
X4.375Y-4.575
X4.4Y-5.25
X4.4375Y-3.7125
X4.4375Y-3.775
X4.4375Y-3.85
X4.44Y-4.575
X4.45Y-2.8
X4.45Y-4.3875
X4.4608Y-3.1892
X4.4625Y-4.2375
X4.4625Y-4.325
X4.4875Y-2.725
X4.4875Y-2.85
X4.4875Y-3.9375
X4.4905Y-3.1595
X4.5Y-3.2875
X4.5Y-4.0
X4.5Y-4.9875
X4.525Y-2.9
X4.525Y-3.125
X4.525Y-4.025
X4.5445Y-3.0013
X4.55Y-3.7
X4.6032Y-3.9728
X4.625Y-2.55
X4.625Y-2.625
X4.6375Y-3.25
X4.6375Y-3.7375
X4.65Y-4.3
X4.6625Y-2.5125
X4.6625Y-2.5875
X4.6625Y-2.6625
X4.6625Y-2.725
X4.6625Y-3.0125
X4.6875Y-3.375
X4.7Y-2.475
X4.7125Y-3.4625
X4.8125Y-4.0875
X4.8125Y-4.3
X4.8875Y-2.85
X4.8875Y-3.025
X4.8875Y-3.2
X4.8875Y-3.4625
X4.9Y-2.7625
X4.9Y-2.9375
X4.9Y-3.1125
X4.9Y-3.2875
X4.9Y-5.475
X4.925Y-3.4375
X4.9375Y-3.3625
X4.9375Y-3.625
X4.9375Y-3.7125
X4.9375Y-3.7875
X4.95Y-5.4375
X4.9795Y-5.4045
X4.9875Y-2.5
X4.9875Y-5.5
X4.9992Y-4.0524
X4.9992Y-4.1626
X4.9997Y-4.2626
X5.0Y-3.875
X5.0Y-3.9875
X5.025Y-2.3625
X5.025Y-3.4225
X5.025Y-3.455
X5.025Y-3.49
X5.0487Y-5.0739
X5.0625Y-5.275
X5.0705Y-5.025
X5.0875Y-5.1
X5.1Y-4.7625
X5.1Y-4.85
X5.1375Y-3.05
X5.15Y-4.5125
X5.2Y-5.45
X5.2125Y-2.3625
X5.225Y-4.35
X5.25Y-3.9625
X5.2625Y-5.25
X5.275Y-3.0
X5.275Y-4.075
X5.275Y-4.1375
X5.275Y-4.4
X5.275Y-4.4625
X5.275Y-4.8875
X5.275Y-4.9375
X5.325Y-3.2625
X5.3625Y-3.1375
X5.375Y-3.4
X5.3875Y-5.25
X5.3955Y-5.085
X5.4Y-2.3625
X5.4006Y-4.7539
X5.4125Y-4.175
X5.4275Y-3.4455
X5.4375Y-4.1
X5.4375Y-5.125
X5.5125Y-5.225
X5.517Y-4.4519
X5.525Y-3.075
X5.55Y-4.7125
X5.61Y-5.015
X5.6125Y-3.9375
X5.6875Y-5.225
X5.825Y-5.225
X5.9125Y-5.075
X6.025Y-5.225
X6.1Y-5.075
X6.1875Y-5.225
X6.3125Y-5.075
X6.5125Y-2.2375
X6.5125Y-2.7375
X6.5875Y-2.2375
X6.5875Y-2.7375
X6.6125Y-5.475
X6.6625Y-2.2375
X6.6625Y-2.7375
X6.725Y-2.2375
X6.725Y-2.7375
X6.7625Y-5.075
X6.7625Y-5.175
X6.7875Y-2.2375
X6.7875Y-2.7375
X6.85Y-2.2375
X6.85Y-2.7375
X6.875Y-5.475
X6.8875Y-5.075
X6.925Y-2.2375
X6.925Y-2.7375
X7.0Y-2.25
X7.0Y-2.7375
X7.025Y-5.075
X7.0625Y-5.475
X7.075Y-2.25
X7.075Y-2.7375
T2
X6.8759Y-1.7375
X6.9062Y-1.6644
X6.9062Y-1.8106
X6.9792Y-1.6342
X6.9792Y-1.8408
X7.0523Y-1.6644
X7.0523Y-1.8106
X7.0826Y-1.7375
X3.2467Y-1.7375
X3.2769Y-1.6644
X3.2769Y-1.8106
X3.35Y-1.6342
X3.35Y-1.8408
X3.4231Y-1.6644
X3.4231Y-1.8106
X3.4533Y-1.7375
X6.4633Y-5.0125
X6.4936Y-4.9394
X6.4936Y-5.0856
X6.5666Y-4.9092
X6.5666Y-5.1158
X6.6397Y-4.9394
X6.6397Y-5.0856
X6.67Y-5.0125
X3.6675Y-5.025
X3.6978Y-4.9519
X3.6978Y-5.0981
X3.7709Y-4.9217
X3.7709Y-5.1283
X3.8439Y-4.9519
X3.8439Y-5.0981
X3.8742Y-5.025
T3
X3.7375Y-3.5125
X3.7375Y-3.6109
X3.325Y-2.75
X3.325Y-3.05
X3.425Y-2.75
X3.425Y-3.05
X3.525Y-2.75
X3.525Y-3.05
X3.625Y-2.75
X3.625Y-3.05
X3.725Y-2.75
X3.725Y-3.05
X3.825Y-2.75
X3.825Y-3.05
X3.925Y-2.75
X3.925Y-3.05
X4.025Y-2.75
X4.025Y-3.05
X4.125Y-2.75
X4.125Y-3.05
X5.1875Y-2.85
X5.1875Y-2.9484
X3.575Y-4.075
X3.6734Y-4.075
X5.2375Y-2.4891
X5.2375Y-2.5875
X3.965Y-4.1196
X3.965Y-4.3117
X5.155Y-3.5516
X5.155Y-3.65
T4
X6.4375Y-5.375
X6.5375Y-5.375
X6.645Y-5.375
X6.745Y-5.375
T5
X3.2875Y-4.375
X3.2875Y-4.475
X3.2875Y-4.575
X3.3875Y-4.375
X3.3875Y-4.475
X3.3875Y-4.575
X4.2375Y-4.8125
X4.3375Y-4.8125
X4.4375Y-4.8125
X4.5375Y-4.8125
X4.6375Y-4.8125
X7.025Y-4.8125
X7.025Y-4.9125
X5.8656Y-2.325
X6.0625Y-2.325
X5.8125Y-2.65
X6.0094Y-2.7012
X4.65Y-4.9375
X4.65Y-5.0375
X4.75Y-4.9375
X4.75Y-5.0375
X4.85Y-4.9375
X4.85Y-5.0375
X6.8625Y-5.2125
X6.8625Y-5.3125
X6.9625Y-5.2125
X6.9625Y-5.3125
X7.0625Y-5.2125
X7.0625Y-5.3125
X7.025Y-4.4875
X7.025Y-4.5875
X4.6225Y-4.0573
X4.6225Y-4.1573
X3.275Y-5.2125
X3.275Y-5.3125
X3.375Y-5.2125
X3.375Y-5.3125
X3.475Y-5.2125
X3.475Y-5.3125
X4.1375Y-3.7125
X4.1375Y-3.8125
X4.1375Y-3.9125
X4.1375Y-4.0125
X4.1375Y-4.1125
X4.1375Y-4.2125
X4.1375Y-4.3125
X4.1375Y-4.4125
X4.1375Y-4.5125
X4.1375Y-4.6125
X4.1375Y-4.7125
X4.1375Y-4.8125
X4.7375Y-3.7125
X4.7375Y-3.8125
X4.7375Y-3.9125
X4.7375Y-4.0125
X4.7375Y-4.1125
X4.7375Y-4.2125
X4.7375Y-4.3125
X4.7375Y-4.4125
X4.7375Y-4.5125
X4.7375Y-4.6125
X4.7375Y-4.7125
X4.7375Y-4.8125
X4.1875Y-3.6125
X4.2875Y-3.6125
X4.3875Y-3.6125
X4.4875Y-3.6125
X4.5875Y-3.6125
X4.6875Y-3.6125
X3.25Y-2.2375
X3.25Y-2.3375
X3.25Y-2.4375
X3.35Y-2.2375
X3.35Y-2.3375
X3.35Y-2.4375
X5.225Y-4.7625
X5.225Y-4.8125
X5.225Y-5.0094
X5.225Y-5.0594
X3.3Y-3.4
X3.3Y-3.5
X3.3Y-3.6
X3.3Y-3.7
X3.3Y-3.8
X3.3Y-3.9
X3.3Y-4.0
X3.3Y-4.1
X3.4Y-3.4
X3.4Y-3.5
X3.4Y-3.6
X3.4Y-3.7
X3.4Y-3.8
X3.4Y-3.9
X3.4Y-4.0
X3.4Y-4.1
X4.6225Y-4.4673
X4.6225Y-4.5673
T6
X3.83Y-3.755
X3.83Y-3.905
T7
X5.65Y-4.0157
X5.65Y-4.1157
X5.65Y-4.2157
X6.4749Y-2.9782
X6.4749Y-3.0782
X6.4749Y-3.1782
X6.2625Y-2.3875
X6.2625Y-2.4875
X6.2625Y-2.5875
X5.65Y-4.6
X5.65Y-4.7
X5.65Y-4.8
X6.475Y-3.45
X6.475Y-3.55
X6.475Y-3.65
T8
X5.15Y-4.2875
X5.45Y-4.2875
X6.475Y-2.0875
X6.7703Y-2.1426
T9
X5.825Y-5.3625
X5.925Y-5.3625
X6.0219Y-5.3625
X6.1219Y-5.3625
X6.2187Y-5.3625
X3.3875Y-4.8125
X3.3875Y-5.0125
X5.1125Y-5.3625
X5.2125Y-5.3625
X5.3094Y-5.3625
X5.4094Y-5.3625
X5.5062Y-5.3625
X6.95Y-3.5875
X6.95Y-3.7875
X4.4Y-5.3625
X4.5Y-5.3625
X4.5969Y-5.3625
X4.6969Y-5.3625
X4.7937Y-5.3625
X6.5Y-1.7875
X6.7Y-1.7875
X3.6875Y-5.3625
X3.7875Y-5.3625
X3.8844Y-5.3625
X3.9844Y-5.3625
X4.0812Y-5.3625
T10
X5.5048Y-2.15
X5.5048Y-2.3665
X5.6702Y-2.15
X5.6702Y-2.3665
X3.7327Y-2.15
X3.7327Y-2.3665
X3.898Y-2.15
X3.898Y-2.3665
X4.0634Y-2.15
X4.0634Y-2.3665
X4.2287Y-2.15
X4.2287Y-2.3665
X4.3941Y-2.15
X4.3941Y-2.3665
X4.5594Y-2.15
X4.5594Y-2.3665
X4.7248Y-2.15
X4.7248Y-2.3665
X4.8902Y-2.15
X4.8902Y-2.3665
T11
X5.3277Y-1.9846
X5.8473Y-1.9846
X3.5527Y-1.9846
X5.0698Y-1.9846
T12
X3.7709Y-5.025
X6.9792Y-1.7375
X3.35Y-1.7375
X6.5666Y-5.0125
T0
M30
