%
M48
M72
T01C0.03200
T02C0.05512
T03C0.12598
%
T01
X11800Y46800
X29300Y56800
X29300Y66800
X29300Y76800
X36800Y91800
X44300Y81800
X46800Y91800
X56800Y91800
X66800Y91800
X76800Y91800
X86800Y91800
X96800Y91800
X106800Y91800
X96800Y121800
X96800Y134300
X96800Y146800
X86800Y161800
X76800Y161800
X66800Y161800
X56800Y146800
X56800Y134300
X56800Y121800
X66800Y121800
X76800Y121800
X86800Y121800
X76800Y66800
X66800Y66800
X56800Y66800
X44300Y41800
X56800Y26800
X66800Y26800
X76800Y26800
X106800Y51800
X46800Y121800
X43050Y141800
X36800Y121800
X31800Y141800
X24300Y116800
X24300Y96800
X11800Y86800
X19300Y141800
X19300Y181800
X31800Y181800
X34300Y191800
X43050Y181800
X34300Y211800
T02
X53532Y206800
X53532Y185146
X70068Y185146
X70068Y206800
T03
X16800Y31800
X106800Y31800
M30
