G75*
%MOIN*%
%OFA0B0*%
%FSLAX25Y25*%
%IPPOS*%
%LPD*%
%AMOC8*
5,1,8,0,0,1.08239X$1,22.5*
%
%ADD10C,0.00000*%
%ADD11C,0.00300*%
%ADD12C,0.01200*%
%ADD13C,0.00600*%
%ADD14C,0.00500*%
%ADD15C,0.05000*%
%ADD16C,0.01000*%
%ADD17C,0.00400*%
%ADD18R,0.02400X0.03400*%
%ADD19R,0.03400X0.02400*%
D10*
X0001800Y0001800D02*
X0001800Y0219261D01*
X0123001Y0219261D01*
X0123001Y0001800D01*
X0001800Y0001800D01*
X0010501Y0031800D02*
X0010503Y0031958D01*
X0010509Y0032116D01*
X0010519Y0032274D01*
X0010533Y0032432D01*
X0010551Y0032589D01*
X0010572Y0032746D01*
X0010598Y0032902D01*
X0010628Y0033058D01*
X0010661Y0033213D01*
X0010699Y0033366D01*
X0010740Y0033519D01*
X0010785Y0033671D01*
X0010834Y0033822D01*
X0010887Y0033971D01*
X0010943Y0034119D01*
X0011003Y0034265D01*
X0011067Y0034410D01*
X0011135Y0034553D01*
X0011206Y0034695D01*
X0011280Y0034835D01*
X0011358Y0034972D01*
X0011440Y0035108D01*
X0011524Y0035242D01*
X0011613Y0035373D01*
X0011704Y0035502D01*
X0011799Y0035629D01*
X0011896Y0035754D01*
X0011997Y0035876D01*
X0012101Y0035995D01*
X0012208Y0036112D01*
X0012318Y0036226D01*
X0012431Y0036337D01*
X0012546Y0036446D01*
X0012664Y0036551D01*
X0012785Y0036653D01*
X0012908Y0036753D01*
X0013034Y0036849D01*
X0013162Y0036942D01*
X0013292Y0037032D01*
X0013425Y0037118D01*
X0013560Y0037202D01*
X0013696Y0037281D01*
X0013835Y0037358D01*
X0013976Y0037430D01*
X0014118Y0037500D01*
X0014262Y0037565D01*
X0014408Y0037627D01*
X0014555Y0037685D01*
X0014704Y0037740D01*
X0014854Y0037791D01*
X0015005Y0037838D01*
X0015157Y0037881D01*
X0015310Y0037920D01*
X0015465Y0037956D01*
X0015620Y0037987D01*
X0015776Y0038015D01*
X0015932Y0038039D01*
X0016089Y0038059D01*
X0016247Y0038075D01*
X0016404Y0038087D01*
X0016563Y0038095D01*
X0016721Y0038099D01*
X0016879Y0038099D01*
X0017037Y0038095D01*
X0017196Y0038087D01*
X0017353Y0038075D01*
X0017511Y0038059D01*
X0017668Y0038039D01*
X0017824Y0038015D01*
X0017980Y0037987D01*
X0018135Y0037956D01*
X0018290Y0037920D01*
X0018443Y0037881D01*
X0018595Y0037838D01*
X0018746Y0037791D01*
X0018896Y0037740D01*
X0019045Y0037685D01*
X0019192Y0037627D01*
X0019338Y0037565D01*
X0019482Y0037500D01*
X0019624Y0037430D01*
X0019765Y0037358D01*
X0019904Y0037281D01*
X0020040Y0037202D01*
X0020175Y0037118D01*
X0020308Y0037032D01*
X0020438Y0036942D01*
X0020566Y0036849D01*
X0020692Y0036753D01*
X0020815Y0036653D01*
X0020936Y0036551D01*
X0021054Y0036446D01*
X0021169Y0036337D01*
X0021282Y0036226D01*
X0021392Y0036112D01*
X0021499Y0035995D01*
X0021603Y0035876D01*
X0021704Y0035754D01*
X0021801Y0035629D01*
X0021896Y0035502D01*
X0021987Y0035373D01*
X0022076Y0035242D01*
X0022160Y0035108D01*
X0022242Y0034972D01*
X0022320Y0034835D01*
X0022394Y0034695D01*
X0022465Y0034553D01*
X0022533Y0034410D01*
X0022597Y0034265D01*
X0022657Y0034119D01*
X0022713Y0033971D01*
X0022766Y0033822D01*
X0022815Y0033671D01*
X0022860Y0033519D01*
X0022901Y0033366D01*
X0022939Y0033213D01*
X0022972Y0033058D01*
X0023002Y0032902D01*
X0023028Y0032746D01*
X0023049Y0032589D01*
X0023067Y0032432D01*
X0023081Y0032274D01*
X0023091Y0032116D01*
X0023097Y0031958D01*
X0023099Y0031800D01*
X0023097Y0031642D01*
X0023091Y0031484D01*
X0023081Y0031326D01*
X0023067Y0031168D01*
X0023049Y0031011D01*
X0023028Y0030854D01*
X0023002Y0030698D01*
X0022972Y0030542D01*
X0022939Y0030387D01*
X0022901Y0030234D01*
X0022860Y0030081D01*
X0022815Y0029929D01*
X0022766Y0029778D01*
X0022713Y0029629D01*
X0022657Y0029481D01*
X0022597Y0029335D01*
X0022533Y0029190D01*
X0022465Y0029047D01*
X0022394Y0028905D01*
X0022320Y0028765D01*
X0022242Y0028628D01*
X0022160Y0028492D01*
X0022076Y0028358D01*
X0021987Y0028227D01*
X0021896Y0028098D01*
X0021801Y0027971D01*
X0021704Y0027846D01*
X0021603Y0027724D01*
X0021499Y0027605D01*
X0021392Y0027488D01*
X0021282Y0027374D01*
X0021169Y0027263D01*
X0021054Y0027154D01*
X0020936Y0027049D01*
X0020815Y0026947D01*
X0020692Y0026847D01*
X0020566Y0026751D01*
X0020438Y0026658D01*
X0020308Y0026568D01*
X0020175Y0026482D01*
X0020040Y0026398D01*
X0019904Y0026319D01*
X0019765Y0026242D01*
X0019624Y0026170D01*
X0019482Y0026100D01*
X0019338Y0026035D01*
X0019192Y0025973D01*
X0019045Y0025915D01*
X0018896Y0025860D01*
X0018746Y0025809D01*
X0018595Y0025762D01*
X0018443Y0025719D01*
X0018290Y0025680D01*
X0018135Y0025644D01*
X0017980Y0025613D01*
X0017824Y0025585D01*
X0017668Y0025561D01*
X0017511Y0025541D01*
X0017353Y0025525D01*
X0017196Y0025513D01*
X0017037Y0025505D01*
X0016879Y0025501D01*
X0016721Y0025501D01*
X0016563Y0025505D01*
X0016404Y0025513D01*
X0016247Y0025525D01*
X0016089Y0025541D01*
X0015932Y0025561D01*
X0015776Y0025585D01*
X0015620Y0025613D01*
X0015465Y0025644D01*
X0015310Y0025680D01*
X0015157Y0025719D01*
X0015005Y0025762D01*
X0014854Y0025809D01*
X0014704Y0025860D01*
X0014555Y0025915D01*
X0014408Y0025973D01*
X0014262Y0026035D01*
X0014118Y0026100D01*
X0013976Y0026170D01*
X0013835Y0026242D01*
X0013696Y0026319D01*
X0013560Y0026398D01*
X0013425Y0026482D01*
X0013292Y0026568D01*
X0013162Y0026658D01*
X0013034Y0026751D01*
X0012908Y0026847D01*
X0012785Y0026947D01*
X0012664Y0027049D01*
X0012546Y0027154D01*
X0012431Y0027263D01*
X0012318Y0027374D01*
X0012208Y0027488D01*
X0012101Y0027605D01*
X0011997Y0027724D01*
X0011896Y0027846D01*
X0011799Y0027971D01*
X0011704Y0028098D01*
X0011613Y0028227D01*
X0011524Y0028358D01*
X0011440Y0028492D01*
X0011358Y0028628D01*
X0011280Y0028765D01*
X0011206Y0028905D01*
X0011135Y0029047D01*
X0011067Y0029190D01*
X0011003Y0029335D01*
X0010943Y0029481D01*
X0010887Y0029629D01*
X0010834Y0029778D01*
X0010785Y0029929D01*
X0010740Y0030081D01*
X0010699Y0030234D01*
X0010661Y0030387D01*
X0010628Y0030542D01*
X0010598Y0030698D01*
X0010572Y0030854D01*
X0010551Y0031011D01*
X0010533Y0031168D01*
X0010519Y0031326D01*
X0010509Y0031484D01*
X0010503Y0031642D01*
X0010501Y0031800D01*
X0100501Y0031800D02*
X0100503Y0031958D01*
X0100509Y0032116D01*
X0100519Y0032274D01*
X0100533Y0032432D01*
X0100551Y0032589D01*
X0100572Y0032746D01*
X0100598Y0032902D01*
X0100628Y0033058D01*
X0100661Y0033213D01*
X0100699Y0033366D01*
X0100740Y0033519D01*
X0100785Y0033671D01*
X0100834Y0033822D01*
X0100887Y0033971D01*
X0100943Y0034119D01*
X0101003Y0034265D01*
X0101067Y0034410D01*
X0101135Y0034553D01*
X0101206Y0034695D01*
X0101280Y0034835D01*
X0101358Y0034972D01*
X0101440Y0035108D01*
X0101524Y0035242D01*
X0101613Y0035373D01*
X0101704Y0035502D01*
X0101799Y0035629D01*
X0101896Y0035754D01*
X0101997Y0035876D01*
X0102101Y0035995D01*
X0102208Y0036112D01*
X0102318Y0036226D01*
X0102431Y0036337D01*
X0102546Y0036446D01*
X0102664Y0036551D01*
X0102785Y0036653D01*
X0102908Y0036753D01*
X0103034Y0036849D01*
X0103162Y0036942D01*
X0103292Y0037032D01*
X0103425Y0037118D01*
X0103560Y0037202D01*
X0103696Y0037281D01*
X0103835Y0037358D01*
X0103976Y0037430D01*
X0104118Y0037500D01*
X0104262Y0037565D01*
X0104408Y0037627D01*
X0104555Y0037685D01*
X0104704Y0037740D01*
X0104854Y0037791D01*
X0105005Y0037838D01*
X0105157Y0037881D01*
X0105310Y0037920D01*
X0105465Y0037956D01*
X0105620Y0037987D01*
X0105776Y0038015D01*
X0105932Y0038039D01*
X0106089Y0038059D01*
X0106247Y0038075D01*
X0106404Y0038087D01*
X0106563Y0038095D01*
X0106721Y0038099D01*
X0106879Y0038099D01*
X0107037Y0038095D01*
X0107196Y0038087D01*
X0107353Y0038075D01*
X0107511Y0038059D01*
X0107668Y0038039D01*
X0107824Y0038015D01*
X0107980Y0037987D01*
X0108135Y0037956D01*
X0108290Y0037920D01*
X0108443Y0037881D01*
X0108595Y0037838D01*
X0108746Y0037791D01*
X0108896Y0037740D01*
X0109045Y0037685D01*
X0109192Y0037627D01*
X0109338Y0037565D01*
X0109482Y0037500D01*
X0109624Y0037430D01*
X0109765Y0037358D01*
X0109904Y0037281D01*
X0110040Y0037202D01*
X0110175Y0037118D01*
X0110308Y0037032D01*
X0110438Y0036942D01*
X0110566Y0036849D01*
X0110692Y0036753D01*
X0110815Y0036653D01*
X0110936Y0036551D01*
X0111054Y0036446D01*
X0111169Y0036337D01*
X0111282Y0036226D01*
X0111392Y0036112D01*
X0111499Y0035995D01*
X0111603Y0035876D01*
X0111704Y0035754D01*
X0111801Y0035629D01*
X0111896Y0035502D01*
X0111987Y0035373D01*
X0112076Y0035242D01*
X0112160Y0035108D01*
X0112242Y0034972D01*
X0112320Y0034835D01*
X0112394Y0034695D01*
X0112465Y0034553D01*
X0112533Y0034410D01*
X0112597Y0034265D01*
X0112657Y0034119D01*
X0112713Y0033971D01*
X0112766Y0033822D01*
X0112815Y0033671D01*
X0112860Y0033519D01*
X0112901Y0033366D01*
X0112939Y0033213D01*
X0112972Y0033058D01*
X0113002Y0032902D01*
X0113028Y0032746D01*
X0113049Y0032589D01*
X0113067Y0032432D01*
X0113081Y0032274D01*
X0113091Y0032116D01*
X0113097Y0031958D01*
X0113099Y0031800D01*
X0113097Y0031642D01*
X0113091Y0031484D01*
X0113081Y0031326D01*
X0113067Y0031168D01*
X0113049Y0031011D01*
X0113028Y0030854D01*
X0113002Y0030698D01*
X0112972Y0030542D01*
X0112939Y0030387D01*
X0112901Y0030234D01*
X0112860Y0030081D01*
X0112815Y0029929D01*
X0112766Y0029778D01*
X0112713Y0029629D01*
X0112657Y0029481D01*
X0112597Y0029335D01*
X0112533Y0029190D01*
X0112465Y0029047D01*
X0112394Y0028905D01*
X0112320Y0028765D01*
X0112242Y0028628D01*
X0112160Y0028492D01*
X0112076Y0028358D01*
X0111987Y0028227D01*
X0111896Y0028098D01*
X0111801Y0027971D01*
X0111704Y0027846D01*
X0111603Y0027724D01*
X0111499Y0027605D01*
X0111392Y0027488D01*
X0111282Y0027374D01*
X0111169Y0027263D01*
X0111054Y0027154D01*
X0110936Y0027049D01*
X0110815Y0026947D01*
X0110692Y0026847D01*
X0110566Y0026751D01*
X0110438Y0026658D01*
X0110308Y0026568D01*
X0110175Y0026482D01*
X0110040Y0026398D01*
X0109904Y0026319D01*
X0109765Y0026242D01*
X0109624Y0026170D01*
X0109482Y0026100D01*
X0109338Y0026035D01*
X0109192Y0025973D01*
X0109045Y0025915D01*
X0108896Y0025860D01*
X0108746Y0025809D01*
X0108595Y0025762D01*
X0108443Y0025719D01*
X0108290Y0025680D01*
X0108135Y0025644D01*
X0107980Y0025613D01*
X0107824Y0025585D01*
X0107668Y0025561D01*
X0107511Y0025541D01*
X0107353Y0025525D01*
X0107196Y0025513D01*
X0107037Y0025505D01*
X0106879Y0025501D01*
X0106721Y0025501D01*
X0106563Y0025505D01*
X0106404Y0025513D01*
X0106247Y0025525D01*
X0106089Y0025541D01*
X0105932Y0025561D01*
X0105776Y0025585D01*
X0105620Y0025613D01*
X0105465Y0025644D01*
X0105310Y0025680D01*
X0105157Y0025719D01*
X0105005Y0025762D01*
X0104854Y0025809D01*
X0104704Y0025860D01*
X0104555Y0025915D01*
X0104408Y0025973D01*
X0104262Y0026035D01*
X0104118Y0026100D01*
X0103976Y0026170D01*
X0103835Y0026242D01*
X0103696Y0026319D01*
X0103560Y0026398D01*
X0103425Y0026482D01*
X0103292Y0026568D01*
X0103162Y0026658D01*
X0103034Y0026751D01*
X0102908Y0026847D01*
X0102785Y0026947D01*
X0102664Y0027049D01*
X0102546Y0027154D01*
X0102431Y0027263D01*
X0102318Y0027374D01*
X0102208Y0027488D01*
X0102101Y0027605D01*
X0101997Y0027724D01*
X0101896Y0027846D01*
X0101799Y0027971D01*
X0101704Y0028098D01*
X0101613Y0028227D01*
X0101524Y0028358D01*
X0101440Y0028492D01*
X0101358Y0028628D01*
X0101280Y0028765D01*
X0101206Y0028905D01*
X0101135Y0029047D01*
X0101067Y0029190D01*
X0101003Y0029335D01*
X0100943Y0029481D01*
X0100887Y0029629D01*
X0100834Y0029778D01*
X0100785Y0029929D01*
X0100740Y0030081D01*
X0100699Y0030234D01*
X0100661Y0030387D01*
X0100628Y0030542D01*
X0100598Y0030698D01*
X0100572Y0030854D01*
X0100551Y0031011D01*
X0100533Y0031168D01*
X0100519Y0031326D01*
X0100509Y0031484D01*
X0100503Y0031642D01*
X0100501Y0031800D01*
D11*
X0094964Y0013153D02*
X0093730Y0013153D01*
X0093113Y0012536D01*
X0093113Y0011919D01*
X0093730Y0011302D01*
X0094964Y0011302D01*
X0095582Y0010684D01*
X0095582Y0010067D01*
X0094964Y0009450D01*
X0093730Y0009450D01*
X0093113Y0010067D01*
X0091017Y0008153D02*
X0091017Y0004450D01*
X0090400Y0004450D02*
X0091635Y0004450D01*
X0092856Y0005067D02*
X0092856Y0006919D01*
X0092856Y0005067D02*
X0093473Y0004450D01*
X0095324Y0004450D01*
X0095324Y0003833D02*
X0094707Y0003216D01*
X0094090Y0003216D01*
X0095324Y0003833D02*
X0095324Y0006919D01*
X0097413Y0009450D02*
X0096796Y0010067D01*
X0096796Y0011302D01*
X0097413Y0011919D01*
X0098648Y0011919D01*
X0099265Y0011302D01*
X0099265Y0010684D01*
X0096796Y0010684D01*
X0097413Y0009450D02*
X0098648Y0009450D01*
X0100479Y0009450D02*
X0100479Y0011919D01*
X0102331Y0011919D01*
X0102948Y0011302D01*
X0102948Y0009450D01*
X0104162Y0009450D02*
X0106014Y0009450D01*
X0106631Y0010067D01*
X0106014Y0010684D01*
X0104780Y0010684D01*
X0104162Y0011302D01*
X0104780Y0011919D01*
X0106631Y0011919D01*
X0107845Y0011302D02*
X0107845Y0010067D01*
X0108463Y0009450D01*
X0109697Y0009450D01*
X0110314Y0010067D01*
X0110314Y0011302D01*
X0109697Y0011919D01*
X0108463Y0011919D01*
X0107845Y0011302D01*
X0111529Y0011919D02*
X0111529Y0009450D01*
X0111529Y0010684D02*
X0112763Y0011919D01*
X0113380Y0011919D01*
X0118281Y0013153D02*
X0118281Y0009450D01*
X0118281Y0010684D02*
X0120133Y0010684D01*
X0120750Y0011302D01*
X0120750Y0012536D01*
X0120133Y0013153D01*
X0118281Y0013153D01*
X0119515Y0010684D02*
X0120750Y0009450D01*
X0121964Y0010067D02*
X0121964Y0012536D01*
X0122581Y0013153D01*
X0123816Y0013153D01*
X0124433Y0012536D01*
X0121964Y0010067D01*
X0122581Y0009450D01*
X0123816Y0009450D01*
X0124433Y0010067D01*
X0124433Y0012536D01*
X0125647Y0012536D02*
X0125647Y0010067D01*
X0128116Y0012536D01*
X0128116Y0010067D01*
X0127499Y0009450D01*
X0126265Y0009450D01*
X0125647Y0010067D01*
X0125647Y0012536D02*
X0126265Y0013153D01*
X0127499Y0013153D01*
X0128116Y0012536D01*
X0095582Y0012536D02*
X0094964Y0013153D01*
X0091017Y0008153D02*
X0090400Y0008153D01*
X0088569Y0006919D02*
X0089186Y0006302D01*
X0089186Y0004450D01*
X0088569Y0006919D02*
X0086717Y0006919D01*
X0086717Y0004450D01*
X0085503Y0005067D02*
X0085503Y0007536D01*
X0084885Y0008153D01*
X0083651Y0008153D01*
X0083034Y0007536D01*
X0083034Y0005067D01*
X0083651Y0004450D01*
X0084885Y0004450D01*
X0085503Y0005067D01*
X0085747Y0009450D02*
X0088215Y0011919D01*
X0085747Y0011919D02*
X0088215Y0009450D01*
X0084532Y0011302D02*
X0083915Y0010684D01*
X0082063Y0010684D01*
X0082063Y0009450D02*
X0082063Y0013153D01*
X0083915Y0013153D01*
X0084532Y0012536D01*
X0084532Y0011302D01*
X0078130Y0004450D02*
X0076895Y0004450D01*
X0077512Y0004450D02*
X0077512Y0008153D01*
X0076895Y0008153D01*
X0077166Y0009450D02*
X0075932Y0010684D01*
X0076549Y0010684D02*
X0074697Y0010684D01*
X0074697Y0009450D02*
X0074697Y0013153D01*
X0076549Y0013153D01*
X0077166Y0012536D01*
X0077166Y0011302D01*
X0076549Y0010684D01*
X0075064Y0006919D02*
X0073829Y0006919D01*
X0073829Y0005684D02*
X0075681Y0005684D01*
X0075681Y0006302D02*
X0075681Y0004450D01*
X0073829Y0004450D01*
X0073212Y0005067D01*
X0073829Y0005684D01*
X0075064Y0006919D02*
X0075681Y0006302D01*
X0073483Y0009450D02*
X0073483Y0011919D01*
X0072248Y0013153D01*
X0071014Y0011919D01*
X0071014Y0009450D01*
X0069800Y0010684D02*
X0067331Y0010684D01*
X0067331Y0010067D02*
X0067331Y0011302D01*
X0067948Y0011919D01*
X0069182Y0011919D01*
X0069800Y0011302D01*
X0069800Y0010684D01*
X0071014Y0011302D02*
X0073483Y0011302D01*
X0071374Y0007536D02*
X0071374Y0005067D01*
X0071991Y0004450D01*
X0071991Y0006919D02*
X0070757Y0006919D01*
X0069542Y0006302D02*
X0069542Y0004450D01*
X0069542Y0006302D02*
X0068925Y0006919D01*
X0067074Y0006919D01*
X0067074Y0004450D01*
X0065859Y0005684D02*
X0063390Y0005684D01*
X0063390Y0005067D02*
X0063390Y0006302D01*
X0064008Y0006919D01*
X0065242Y0006919D01*
X0065859Y0006302D01*
X0065859Y0005684D01*
X0065242Y0004450D02*
X0064008Y0004450D01*
X0063390Y0005067D01*
X0062176Y0004450D02*
X0062176Y0006302D01*
X0061559Y0006919D01*
X0060942Y0006302D01*
X0060942Y0004450D01*
X0059707Y0004450D02*
X0059707Y0006919D01*
X0060324Y0006919D01*
X0060942Y0006302D01*
X0060582Y0009450D02*
X0059965Y0010067D01*
X0062433Y0012536D01*
X0062433Y0010067D01*
X0061816Y0009450D01*
X0060582Y0009450D01*
X0059965Y0010067D02*
X0059965Y0012536D01*
X0060582Y0013153D01*
X0061816Y0013153D01*
X0062433Y0012536D01*
X0058750Y0012536D02*
X0058133Y0013153D01*
X0056899Y0013153D01*
X0056281Y0012536D01*
X0055067Y0012536D02*
X0054450Y0013153D01*
X0053215Y0013153D01*
X0052598Y0012536D01*
X0052598Y0011919D01*
X0053215Y0011302D01*
X0054450Y0011302D01*
X0055067Y0010684D01*
X0055067Y0010067D01*
X0054450Y0009450D01*
X0053215Y0009450D01*
X0052598Y0010067D01*
X0051384Y0011302D02*
X0050767Y0010684D01*
X0048915Y0010684D01*
X0048915Y0009450D02*
X0048915Y0013153D01*
X0050767Y0013153D01*
X0051384Y0012536D01*
X0051384Y0011302D01*
X0051117Y0006919D02*
X0052351Y0006919D01*
X0052968Y0006302D01*
X0052968Y0005684D01*
X0050499Y0005684D01*
X0050499Y0005067D02*
X0050499Y0006302D01*
X0051117Y0006919D01*
X0049285Y0006302D02*
X0049285Y0005067D01*
X0048668Y0004450D01*
X0046816Y0004450D01*
X0045602Y0004450D02*
X0043133Y0006919D01*
X0041919Y0008153D02*
X0039450Y0008153D01*
X0039450Y0004450D01*
X0041919Y0004450D01*
X0043133Y0004450D02*
X0045602Y0006919D01*
X0046816Y0006919D02*
X0046816Y0003216D01*
X0046816Y0006919D02*
X0048668Y0006919D01*
X0049285Y0006302D01*
X0050499Y0005067D02*
X0051117Y0004450D01*
X0052351Y0004450D01*
X0054183Y0004450D02*
X0054183Y0006919D01*
X0055417Y0006919D02*
X0054183Y0005684D01*
X0055417Y0006919D02*
X0056034Y0006919D01*
X0057252Y0006919D02*
X0057869Y0006919D01*
X0057869Y0004450D01*
X0057252Y0004450D02*
X0058486Y0004450D01*
X0057869Y0008153D02*
X0057869Y0008770D01*
X0058750Y0009450D02*
X0056281Y0009450D01*
X0058750Y0011919D01*
X0058750Y0012536D01*
X0067331Y0010067D02*
X0067948Y0009450D01*
X0069182Y0009450D01*
X0047701Y0009450D02*
X0047701Y0013153D01*
X0046466Y0011919D01*
X0045232Y0013153D01*
X0045232Y0009450D01*
X0040334Y0010067D02*
X0040334Y0012536D01*
X0039717Y0013153D01*
X0038483Y0013153D01*
X0037866Y0012536D01*
X0037866Y0011919D01*
X0038483Y0011302D01*
X0040334Y0011302D01*
X0040334Y0010067D02*
X0039717Y0009450D01*
X0038483Y0009450D01*
X0037866Y0010067D01*
X0036651Y0009450D02*
X0034183Y0009450D01*
X0036651Y0011919D01*
X0036651Y0012536D01*
X0036034Y0013153D01*
X0034800Y0013153D01*
X0034183Y0012536D01*
X0032968Y0011302D02*
X0030499Y0011302D01*
X0032351Y0013153D01*
X0032351Y0009450D01*
X0029285Y0010067D02*
X0028668Y0009450D01*
X0027433Y0009450D01*
X0026816Y0010067D01*
X0029285Y0012536D01*
X0029285Y0010067D01*
X0029285Y0012536D02*
X0028668Y0013153D01*
X0027433Y0013153D01*
X0026816Y0012536D01*
X0026816Y0010067D01*
X0025602Y0010067D02*
X0025602Y0012536D01*
X0023133Y0010067D01*
X0023750Y0009450D01*
X0024985Y0009450D01*
X0025602Y0010067D01*
X0025602Y0012536D02*
X0024985Y0013153D01*
X0023750Y0013153D01*
X0023133Y0012536D01*
X0023133Y0010067D01*
X0021919Y0009450D02*
X0019450Y0009450D01*
X0021919Y0011919D01*
X0021919Y0012536D01*
X0021302Y0013153D01*
X0020067Y0013153D01*
X0019450Y0012536D01*
X0025067Y0036950D02*
X0024450Y0037567D01*
X0024450Y0040036D01*
X0025067Y0040653D01*
X0026302Y0040653D01*
X0026919Y0040036D01*
X0026919Y0038802D02*
X0025684Y0038802D01*
X0026919Y0038802D02*
X0026919Y0037567D01*
X0026302Y0036950D01*
X0025067Y0036950D01*
X0028133Y0036950D02*
X0028133Y0039419D01*
X0029368Y0040653D01*
X0030602Y0039419D01*
X0030602Y0036950D01*
X0031816Y0036950D02*
X0033051Y0036950D01*
X0032433Y0036950D02*
X0032433Y0040653D01*
X0031816Y0040653D02*
X0033051Y0040653D01*
X0034272Y0040653D02*
X0034272Y0036950D01*
X0036740Y0036950D02*
X0034272Y0040653D01*
X0036740Y0040653D02*
X0036740Y0036950D01*
X0030602Y0038802D02*
X0028133Y0038802D01*
X0039450Y0006302D02*
X0040684Y0006302D01*
X0080067Y0176950D02*
X0081302Y0176950D01*
X0081919Y0177567D01*
X0081919Y0180036D01*
X0081302Y0180653D01*
X0080067Y0180653D01*
X0079450Y0180036D01*
X0079450Y0177567D01*
X0080067Y0176950D01*
X0083133Y0176950D02*
X0083133Y0180653D01*
X0085602Y0180653D01*
X0086816Y0180653D02*
X0086816Y0176950D01*
X0086816Y0178802D02*
X0088051Y0178802D01*
X0089285Y0180653D02*
X0086816Y0180653D01*
X0084368Y0178802D02*
X0083133Y0178802D01*
X0090499Y0179419D02*
X0091117Y0178802D01*
X0092351Y0178802D01*
X0092968Y0178184D01*
X0092968Y0177567D01*
X0092351Y0176950D01*
X0091117Y0176950D01*
X0090499Y0177567D01*
X0090499Y0179419D02*
X0090499Y0180036D01*
X0091117Y0180653D01*
X0092351Y0180653D01*
X0092968Y0180036D01*
X0094183Y0180653D02*
X0094183Y0176950D01*
X0096651Y0176950D01*
X0095417Y0178802D02*
X0094183Y0178802D01*
X0094183Y0180653D02*
X0096651Y0180653D01*
X0097866Y0180653D02*
X0100334Y0180653D01*
X0099100Y0180653D02*
X0099100Y0176950D01*
X0105232Y0180653D02*
X0107701Y0180653D01*
X0108915Y0180653D02*
X0108915Y0176950D01*
X0108915Y0178184D02*
X0110767Y0178184D01*
X0111384Y0178802D01*
X0111384Y0180036D01*
X0110767Y0180653D01*
X0108915Y0180653D01*
X0110150Y0178184D02*
X0111384Y0176950D01*
X0112598Y0176950D02*
X0113833Y0176950D01*
X0113215Y0176950D02*
X0113215Y0180653D01*
X0112598Y0180653D02*
X0113833Y0180653D01*
X0115054Y0180653D02*
X0115054Y0176950D01*
X0116288Y0179419D02*
X0115054Y0180653D01*
X0116288Y0179419D02*
X0117523Y0180653D01*
X0117523Y0176950D01*
X0106466Y0176950D02*
X0106466Y0180653D01*
D12*
X0036800Y0200600D02*
X0034300Y0200600D01*
X0031800Y0200600D01*
X0031800Y0203100D02*
X0034300Y0203100D01*
X0036800Y0203100D01*
X0026800Y0108000D02*
X0024300Y0108000D01*
X0021800Y0108000D01*
X0021800Y0105500D02*
X0024300Y0105500D01*
X0026800Y0105500D01*
D13*
X0024300Y0105500D02*
X0024300Y0100800D01*
X0024300Y0108000D02*
X0024300Y0112800D01*
X0019300Y0120300D02*
X0019302Y0120360D01*
X0019307Y0120421D01*
X0019316Y0120480D01*
X0019329Y0120539D01*
X0019345Y0120598D01*
X0019365Y0120655D01*
X0019388Y0120710D01*
X0019415Y0120765D01*
X0019444Y0120817D01*
X0019477Y0120868D01*
X0019513Y0120917D01*
X0019551Y0120963D01*
X0019593Y0121007D01*
X0019637Y0121049D01*
X0019683Y0121087D01*
X0019732Y0121123D01*
X0019783Y0121156D01*
X0019835Y0121185D01*
X0019890Y0121212D01*
X0019945Y0121235D01*
X0020002Y0121255D01*
X0020061Y0121271D01*
X0020120Y0121284D01*
X0020179Y0121293D01*
X0020240Y0121298D01*
X0020300Y0121300D01*
X0028300Y0121300D01*
X0028360Y0121298D01*
X0028421Y0121293D01*
X0028480Y0121284D01*
X0028539Y0121271D01*
X0028598Y0121255D01*
X0028655Y0121235D01*
X0028710Y0121212D01*
X0028765Y0121185D01*
X0028817Y0121156D01*
X0028868Y0121123D01*
X0028917Y0121087D01*
X0028963Y0121049D01*
X0029007Y0121007D01*
X0029049Y0120963D01*
X0029087Y0120917D01*
X0029123Y0120868D01*
X0029156Y0120817D01*
X0029185Y0120765D01*
X0029212Y0120710D01*
X0029235Y0120655D01*
X0029255Y0120598D01*
X0029271Y0120539D01*
X0029284Y0120480D01*
X0029293Y0120421D01*
X0029298Y0120360D01*
X0029300Y0120300D01*
X0029300Y0093300D01*
X0029298Y0093240D01*
X0029293Y0093179D01*
X0029284Y0093120D01*
X0029271Y0093061D01*
X0029255Y0093002D01*
X0029235Y0092945D01*
X0029212Y0092890D01*
X0029185Y0092835D01*
X0029156Y0092783D01*
X0029123Y0092732D01*
X0029087Y0092683D01*
X0029049Y0092637D01*
X0029007Y0092593D01*
X0028963Y0092551D01*
X0028917Y0092513D01*
X0028868Y0092477D01*
X0028817Y0092444D01*
X0028765Y0092415D01*
X0028710Y0092388D01*
X0028655Y0092365D01*
X0028598Y0092345D01*
X0028539Y0092329D01*
X0028480Y0092316D01*
X0028421Y0092307D01*
X0028360Y0092302D01*
X0028300Y0092300D01*
X0020300Y0092300D01*
X0020240Y0092302D01*
X0020179Y0092307D01*
X0020120Y0092316D01*
X0020061Y0092329D01*
X0020002Y0092345D01*
X0019945Y0092365D01*
X0019890Y0092388D01*
X0019835Y0092415D01*
X0019783Y0092444D01*
X0019732Y0092477D01*
X0019683Y0092513D01*
X0019637Y0092551D01*
X0019593Y0092593D01*
X0019551Y0092637D01*
X0019513Y0092683D01*
X0019477Y0092732D01*
X0019444Y0092783D01*
X0019415Y0092835D01*
X0019388Y0092890D01*
X0019365Y0092945D01*
X0019345Y0093002D01*
X0019329Y0093061D01*
X0019316Y0093120D01*
X0019307Y0093179D01*
X0019302Y0093240D01*
X0019300Y0093300D01*
X0019300Y0120300D01*
X0031800Y0118300D02*
X0031800Y0095300D01*
X0101800Y0095300D01*
X0101800Y0102800D01*
X0101674Y0102802D01*
X0101549Y0102808D01*
X0101424Y0102818D01*
X0101299Y0102832D01*
X0101174Y0102849D01*
X0101050Y0102871D01*
X0100927Y0102896D01*
X0100805Y0102926D01*
X0100684Y0102959D01*
X0100564Y0102996D01*
X0100445Y0103036D01*
X0100328Y0103081D01*
X0100211Y0103129D01*
X0100097Y0103181D01*
X0099984Y0103236D01*
X0099873Y0103295D01*
X0099764Y0103357D01*
X0099657Y0103423D01*
X0099552Y0103492D01*
X0099449Y0103564D01*
X0099348Y0103639D01*
X0099250Y0103718D01*
X0099155Y0103800D01*
X0099062Y0103884D01*
X0098972Y0103972D01*
X0098884Y0104062D01*
X0098800Y0104155D01*
X0098718Y0104250D01*
X0098639Y0104348D01*
X0098564Y0104449D01*
X0098492Y0104552D01*
X0098423Y0104657D01*
X0098357Y0104764D01*
X0098295Y0104873D01*
X0098236Y0104984D01*
X0098181Y0105097D01*
X0098129Y0105211D01*
X0098081Y0105328D01*
X0098036Y0105445D01*
X0097996Y0105564D01*
X0097959Y0105684D01*
X0097926Y0105805D01*
X0097896Y0105927D01*
X0097871Y0106050D01*
X0097849Y0106174D01*
X0097832Y0106299D01*
X0097818Y0106424D01*
X0097808Y0106549D01*
X0097802Y0106674D01*
X0097800Y0106800D01*
X0097802Y0106926D01*
X0097808Y0107051D01*
X0097818Y0107176D01*
X0097832Y0107301D01*
X0097849Y0107426D01*
X0097871Y0107550D01*
X0097896Y0107673D01*
X0097926Y0107795D01*
X0097959Y0107916D01*
X0097996Y0108036D01*
X0098036Y0108155D01*
X0098081Y0108272D01*
X0098129Y0108389D01*
X0098181Y0108503D01*
X0098236Y0108616D01*
X0098295Y0108727D01*
X0098357Y0108836D01*
X0098423Y0108943D01*
X0098492Y0109048D01*
X0098564Y0109151D01*
X0098639Y0109252D01*
X0098718Y0109350D01*
X0098800Y0109445D01*
X0098884Y0109538D01*
X0098972Y0109628D01*
X0099062Y0109716D01*
X0099155Y0109800D01*
X0099250Y0109882D01*
X0099348Y0109961D01*
X0099449Y0110036D01*
X0099552Y0110108D01*
X0099657Y0110177D01*
X0099764Y0110243D01*
X0099873Y0110305D01*
X0099984Y0110364D01*
X0100097Y0110419D01*
X0100211Y0110471D01*
X0100328Y0110519D01*
X0100445Y0110564D01*
X0100564Y0110604D01*
X0100684Y0110641D01*
X0100805Y0110674D01*
X0100927Y0110704D01*
X0101050Y0110729D01*
X0101174Y0110751D01*
X0101299Y0110768D01*
X0101424Y0110782D01*
X0101549Y0110792D01*
X0101674Y0110798D01*
X0101800Y0110800D01*
X0101800Y0118300D01*
X0031800Y0118300D01*
X0035300Y0149300D02*
X0028300Y0149300D01*
X0028240Y0149302D01*
X0028179Y0149307D01*
X0028120Y0149316D01*
X0028061Y0149329D01*
X0028002Y0149345D01*
X0027945Y0149365D01*
X0027890Y0149388D01*
X0027835Y0149415D01*
X0027783Y0149444D01*
X0027732Y0149477D01*
X0027683Y0149513D01*
X0027637Y0149551D01*
X0027593Y0149593D01*
X0027551Y0149637D01*
X0027513Y0149683D01*
X0027477Y0149732D01*
X0027444Y0149783D01*
X0027415Y0149835D01*
X0027388Y0149890D01*
X0027365Y0149945D01*
X0027345Y0150002D01*
X0027329Y0150061D01*
X0027316Y0150120D01*
X0027307Y0150179D01*
X0027302Y0150240D01*
X0027300Y0150300D01*
X0027300Y0151800D01*
X0027800Y0152300D01*
X0027800Y0171300D01*
X0027300Y0171800D01*
X0027300Y0173300D01*
X0027302Y0173360D01*
X0027307Y0173421D01*
X0027316Y0173480D01*
X0027329Y0173539D01*
X0027345Y0173598D01*
X0027365Y0173655D01*
X0027388Y0173710D01*
X0027415Y0173765D01*
X0027444Y0173817D01*
X0027477Y0173868D01*
X0027513Y0173917D01*
X0027551Y0173963D01*
X0027593Y0174007D01*
X0027637Y0174049D01*
X0027683Y0174087D01*
X0027732Y0174123D01*
X0027783Y0174156D01*
X0027835Y0174185D01*
X0027890Y0174212D01*
X0027945Y0174235D01*
X0028002Y0174255D01*
X0028061Y0174271D01*
X0028120Y0174284D01*
X0028179Y0174293D01*
X0028240Y0174298D01*
X0028300Y0174300D01*
X0035300Y0174300D01*
X0035360Y0174298D01*
X0035421Y0174293D01*
X0035480Y0174284D01*
X0035539Y0174271D01*
X0035598Y0174255D01*
X0035655Y0174235D01*
X0035710Y0174212D01*
X0035765Y0174185D01*
X0035817Y0174156D01*
X0035868Y0174123D01*
X0035917Y0174087D01*
X0035963Y0174049D01*
X0036007Y0174007D01*
X0036049Y0173963D01*
X0036087Y0173917D01*
X0036123Y0173868D01*
X0036156Y0173817D01*
X0036185Y0173765D01*
X0036212Y0173710D01*
X0036235Y0173655D01*
X0036255Y0173598D01*
X0036271Y0173539D01*
X0036284Y0173480D01*
X0036293Y0173421D01*
X0036298Y0173360D01*
X0036300Y0173300D01*
X0036300Y0171800D01*
X0035800Y0171300D01*
X0035800Y0152300D01*
X0036300Y0151800D01*
X0036300Y0150300D01*
X0036298Y0150240D01*
X0036293Y0150179D01*
X0036284Y0150120D01*
X0036271Y0150061D01*
X0036255Y0150002D01*
X0036235Y0149945D01*
X0036212Y0149890D01*
X0036185Y0149835D01*
X0036156Y0149783D01*
X0036123Y0149732D01*
X0036087Y0149683D01*
X0036049Y0149637D01*
X0036007Y0149593D01*
X0035963Y0149551D01*
X0035917Y0149513D01*
X0035868Y0149477D01*
X0035817Y0149444D01*
X0035765Y0149415D01*
X0035710Y0149388D01*
X0035655Y0149365D01*
X0035598Y0149345D01*
X0035539Y0149329D01*
X0035480Y0149316D01*
X0035421Y0149307D01*
X0035360Y0149302D01*
X0035300Y0149300D01*
X0038550Y0150300D02*
X0038550Y0151800D01*
X0039050Y0152300D01*
X0039050Y0171300D01*
X0038550Y0171800D01*
X0038550Y0173300D01*
X0038552Y0173360D01*
X0038557Y0173421D01*
X0038566Y0173480D01*
X0038579Y0173539D01*
X0038595Y0173598D01*
X0038615Y0173655D01*
X0038638Y0173710D01*
X0038665Y0173765D01*
X0038694Y0173817D01*
X0038727Y0173868D01*
X0038763Y0173917D01*
X0038801Y0173963D01*
X0038843Y0174007D01*
X0038887Y0174049D01*
X0038933Y0174087D01*
X0038982Y0174123D01*
X0039033Y0174156D01*
X0039085Y0174185D01*
X0039140Y0174212D01*
X0039195Y0174235D01*
X0039252Y0174255D01*
X0039311Y0174271D01*
X0039370Y0174284D01*
X0039429Y0174293D01*
X0039490Y0174298D01*
X0039550Y0174300D01*
X0046550Y0174300D01*
X0046610Y0174298D01*
X0046671Y0174293D01*
X0046730Y0174284D01*
X0046789Y0174271D01*
X0046848Y0174255D01*
X0046905Y0174235D01*
X0046960Y0174212D01*
X0047015Y0174185D01*
X0047067Y0174156D01*
X0047118Y0174123D01*
X0047167Y0174087D01*
X0047213Y0174049D01*
X0047257Y0174007D01*
X0047299Y0173963D01*
X0047337Y0173917D01*
X0047373Y0173868D01*
X0047406Y0173817D01*
X0047435Y0173765D01*
X0047462Y0173710D01*
X0047485Y0173655D01*
X0047505Y0173598D01*
X0047521Y0173539D01*
X0047534Y0173480D01*
X0047543Y0173421D01*
X0047548Y0173360D01*
X0047550Y0173300D01*
X0047550Y0171800D01*
X0047050Y0171300D01*
X0047050Y0152300D01*
X0047550Y0151800D01*
X0047550Y0150300D01*
X0047548Y0150240D01*
X0047543Y0150179D01*
X0047534Y0150120D01*
X0047521Y0150061D01*
X0047505Y0150002D01*
X0047485Y0149945D01*
X0047462Y0149890D01*
X0047435Y0149835D01*
X0047406Y0149783D01*
X0047373Y0149732D01*
X0047337Y0149683D01*
X0047299Y0149637D01*
X0047257Y0149593D01*
X0047213Y0149551D01*
X0047167Y0149513D01*
X0047118Y0149477D01*
X0047067Y0149444D01*
X0047015Y0149415D01*
X0046960Y0149388D01*
X0046905Y0149365D01*
X0046848Y0149345D01*
X0046789Y0149329D01*
X0046730Y0149316D01*
X0046671Y0149307D01*
X0046610Y0149302D01*
X0046550Y0149300D01*
X0039550Y0149300D01*
X0039490Y0149302D01*
X0039429Y0149307D01*
X0039370Y0149316D01*
X0039311Y0149329D01*
X0039252Y0149345D01*
X0039195Y0149365D01*
X0039140Y0149388D01*
X0039085Y0149415D01*
X0039033Y0149444D01*
X0038982Y0149477D01*
X0038933Y0149513D01*
X0038887Y0149551D01*
X0038843Y0149593D01*
X0038801Y0149637D01*
X0038763Y0149683D01*
X0038727Y0149732D01*
X0038694Y0149783D01*
X0038665Y0149835D01*
X0038638Y0149890D01*
X0038615Y0149945D01*
X0038595Y0150002D01*
X0038579Y0150061D01*
X0038566Y0150120D01*
X0038557Y0150179D01*
X0038552Y0150240D01*
X0038550Y0150300D01*
X0023800Y0150300D02*
X0023800Y0151800D01*
X0023300Y0152300D01*
X0023300Y0171300D01*
X0023800Y0171800D01*
X0023800Y0173300D01*
X0023798Y0173360D01*
X0023793Y0173421D01*
X0023784Y0173480D01*
X0023771Y0173539D01*
X0023755Y0173598D01*
X0023735Y0173655D01*
X0023712Y0173710D01*
X0023685Y0173765D01*
X0023656Y0173817D01*
X0023623Y0173868D01*
X0023587Y0173917D01*
X0023549Y0173963D01*
X0023507Y0174007D01*
X0023463Y0174049D01*
X0023417Y0174087D01*
X0023368Y0174123D01*
X0023317Y0174156D01*
X0023265Y0174185D01*
X0023210Y0174212D01*
X0023155Y0174235D01*
X0023098Y0174255D01*
X0023039Y0174271D01*
X0022980Y0174284D01*
X0022921Y0174293D01*
X0022860Y0174298D01*
X0022800Y0174300D01*
X0015800Y0174300D01*
X0015740Y0174298D01*
X0015679Y0174293D01*
X0015620Y0174284D01*
X0015561Y0174271D01*
X0015502Y0174255D01*
X0015445Y0174235D01*
X0015390Y0174212D01*
X0015335Y0174185D01*
X0015283Y0174156D01*
X0015232Y0174123D01*
X0015183Y0174087D01*
X0015137Y0174049D01*
X0015093Y0174007D01*
X0015051Y0173963D01*
X0015013Y0173917D01*
X0014977Y0173868D01*
X0014944Y0173817D01*
X0014915Y0173765D01*
X0014888Y0173710D01*
X0014865Y0173655D01*
X0014845Y0173598D01*
X0014829Y0173539D01*
X0014816Y0173480D01*
X0014807Y0173421D01*
X0014802Y0173360D01*
X0014800Y0173300D01*
X0014800Y0171800D01*
X0015300Y0171300D01*
X0015300Y0152300D01*
X0014800Y0151800D01*
X0014800Y0150300D01*
X0014802Y0150240D01*
X0014807Y0150179D01*
X0014816Y0150120D01*
X0014829Y0150061D01*
X0014845Y0150002D01*
X0014865Y0149945D01*
X0014888Y0149890D01*
X0014915Y0149835D01*
X0014944Y0149783D01*
X0014977Y0149732D01*
X0015013Y0149683D01*
X0015051Y0149637D01*
X0015093Y0149593D01*
X0015137Y0149551D01*
X0015183Y0149513D01*
X0015232Y0149477D01*
X0015283Y0149444D01*
X0015335Y0149415D01*
X0015390Y0149388D01*
X0015445Y0149365D01*
X0015502Y0149345D01*
X0015561Y0149329D01*
X0015620Y0149316D01*
X0015679Y0149307D01*
X0015740Y0149302D01*
X0015800Y0149300D01*
X0022800Y0149300D01*
X0022860Y0149302D01*
X0022921Y0149307D01*
X0022980Y0149316D01*
X0023039Y0149329D01*
X0023098Y0149345D01*
X0023155Y0149365D01*
X0023210Y0149388D01*
X0023265Y0149415D01*
X0023317Y0149444D01*
X0023368Y0149477D01*
X0023417Y0149513D01*
X0023463Y0149551D01*
X0023507Y0149593D01*
X0023549Y0149637D01*
X0023587Y0149683D01*
X0023623Y0149732D01*
X0023656Y0149783D01*
X0023685Y0149835D01*
X0023712Y0149890D01*
X0023735Y0149945D01*
X0023755Y0150002D01*
X0023771Y0150061D01*
X0023784Y0150120D01*
X0023793Y0150179D01*
X0023798Y0150240D01*
X0023800Y0150300D01*
X0030300Y0187300D02*
X0038300Y0187300D01*
X0038360Y0187302D01*
X0038421Y0187307D01*
X0038480Y0187316D01*
X0038539Y0187329D01*
X0038598Y0187345D01*
X0038655Y0187365D01*
X0038710Y0187388D01*
X0038765Y0187415D01*
X0038817Y0187444D01*
X0038868Y0187477D01*
X0038917Y0187513D01*
X0038963Y0187551D01*
X0039007Y0187593D01*
X0039049Y0187637D01*
X0039087Y0187683D01*
X0039123Y0187732D01*
X0039156Y0187783D01*
X0039185Y0187835D01*
X0039212Y0187890D01*
X0039235Y0187945D01*
X0039255Y0188002D01*
X0039271Y0188061D01*
X0039284Y0188120D01*
X0039293Y0188179D01*
X0039298Y0188240D01*
X0039300Y0188300D01*
X0039300Y0215300D01*
X0039298Y0215360D01*
X0039293Y0215421D01*
X0039284Y0215480D01*
X0039271Y0215539D01*
X0039255Y0215598D01*
X0039235Y0215655D01*
X0039212Y0215710D01*
X0039185Y0215765D01*
X0039156Y0215817D01*
X0039123Y0215868D01*
X0039087Y0215917D01*
X0039049Y0215963D01*
X0039007Y0216007D01*
X0038963Y0216049D01*
X0038917Y0216087D01*
X0038868Y0216123D01*
X0038817Y0216156D01*
X0038765Y0216185D01*
X0038710Y0216212D01*
X0038655Y0216235D01*
X0038598Y0216255D01*
X0038539Y0216271D01*
X0038480Y0216284D01*
X0038421Y0216293D01*
X0038360Y0216298D01*
X0038300Y0216300D01*
X0030300Y0216300D01*
X0030240Y0216298D01*
X0030179Y0216293D01*
X0030120Y0216284D01*
X0030061Y0216271D01*
X0030002Y0216255D01*
X0029945Y0216235D01*
X0029890Y0216212D01*
X0029835Y0216185D01*
X0029783Y0216156D01*
X0029732Y0216123D01*
X0029683Y0216087D01*
X0029637Y0216049D01*
X0029593Y0216007D01*
X0029551Y0215963D01*
X0029513Y0215917D01*
X0029477Y0215868D01*
X0029444Y0215817D01*
X0029415Y0215765D01*
X0029388Y0215710D01*
X0029365Y0215655D01*
X0029345Y0215598D01*
X0029329Y0215539D01*
X0029316Y0215480D01*
X0029307Y0215421D01*
X0029302Y0215360D01*
X0029300Y0215300D01*
X0029300Y0188300D01*
X0029302Y0188240D01*
X0029307Y0188179D01*
X0029316Y0188120D01*
X0029329Y0188061D01*
X0029345Y0188002D01*
X0029365Y0187945D01*
X0029388Y0187890D01*
X0029415Y0187835D01*
X0029444Y0187783D01*
X0029477Y0187732D01*
X0029513Y0187683D01*
X0029551Y0187637D01*
X0029593Y0187593D01*
X0029637Y0187551D01*
X0029683Y0187513D01*
X0029732Y0187477D01*
X0029783Y0187444D01*
X0029835Y0187415D01*
X0029890Y0187388D01*
X0029945Y0187365D01*
X0030002Y0187345D01*
X0030061Y0187329D01*
X0030120Y0187316D01*
X0030179Y0187307D01*
X0030240Y0187302D01*
X0030300Y0187300D01*
X0034300Y0195800D02*
X0034300Y0200600D01*
X0034300Y0203100D02*
X0034300Y0207800D01*
X0064300Y0169800D02*
X0064300Y0167300D01*
X0064300Y0169800D02*
X0089300Y0169800D01*
X0089300Y0167300D01*
X0089300Y0156300D02*
X0089300Y0153100D01*
X0064300Y0153100D01*
X0064300Y0156300D01*
X0065800Y0156300D02*
X0071800Y0156300D01*
X0071800Y0154800D01*
X0071300Y0154300D01*
X0071300Y0158300D01*
X0071800Y0157800D01*
X0071800Y0156300D01*
X0073300Y0156300D01*
X0072800Y0156800D01*
X0072300Y0157300D01*
X0071800Y0157800D01*
X0072300Y0157300D02*
X0072300Y0155300D01*
X0072800Y0155800D01*
X0072800Y0156800D01*
X0073300Y0156300D02*
X0072800Y0155800D01*
X0072300Y0155300D02*
X0071800Y0154800D01*
X0067300Y0150800D02*
X0086300Y0150800D01*
X0086800Y0151300D01*
X0088300Y0151300D01*
X0088360Y0151298D01*
X0088421Y0151293D01*
X0088480Y0151284D01*
X0088539Y0151271D01*
X0088598Y0151255D01*
X0088655Y0151235D01*
X0088710Y0151212D01*
X0088765Y0151185D01*
X0088817Y0151156D01*
X0088868Y0151123D01*
X0088917Y0151087D01*
X0088963Y0151049D01*
X0089007Y0151007D01*
X0089049Y0150963D01*
X0089087Y0150917D01*
X0089123Y0150868D01*
X0089156Y0150817D01*
X0089185Y0150765D01*
X0089212Y0150710D01*
X0089235Y0150655D01*
X0089255Y0150598D01*
X0089271Y0150539D01*
X0089284Y0150480D01*
X0089293Y0150421D01*
X0089298Y0150360D01*
X0089300Y0150300D01*
X0089300Y0143300D01*
X0089298Y0143240D01*
X0089293Y0143179D01*
X0089284Y0143120D01*
X0089271Y0143061D01*
X0089255Y0143002D01*
X0089235Y0142945D01*
X0089212Y0142890D01*
X0089185Y0142835D01*
X0089156Y0142783D01*
X0089123Y0142732D01*
X0089087Y0142683D01*
X0089049Y0142637D01*
X0089007Y0142593D01*
X0088963Y0142551D01*
X0088917Y0142513D01*
X0088868Y0142477D01*
X0088817Y0142444D01*
X0088765Y0142415D01*
X0088710Y0142388D01*
X0088655Y0142365D01*
X0088598Y0142345D01*
X0088539Y0142329D01*
X0088480Y0142316D01*
X0088421Y0142307D01*
X0088360Y0142302D01*
X0088300Y0142300D01*
X0086800Y0142300D01*
X0086300Y0142800D01*
X0067300Y0142800D01*
X0066800Y0142300D01*
X0065300Y0142300D01*
X0065240Y0142302D01*
X0065179Y0142307D01*
X0065120Y0142316D01*
X0065061Y0142329D01*
X0065002Y0142345D01*
X0064945Y0142365D01*
X0064890Y0142388D01*
X0064835Y0142415D01*
X0064783Y0142444D01*
X0064732Y0142477D01*
X0064683Y0142513D01*
X0064637Y0142551D01*
X0064593Y0142593D01*
X0064551Y0142637D01*
X0064513Y0142683D01*
X0064477Y0142732D01*
X0064444Y0142783D01*
X0064415Y0142835D01*
X0064388Y0142890D01*
X0064365Y0142945D01*
X0064345Y0143002D01*
X0064329Y0143061D01*
X0064316Y0143120D01*
X0064307Y0143179D01*
X0064302Y0143240D01*
X0064300Y0143300D01*
X0064300Y0150300D01*
X0064302Y0150360D01*
X0064307Y0150421D01*
X0064316Y0150480D01*
X0064329Y0150539D01*
X0064345Y0150598D01*
X0064365Y0150655D01*
X0064388Y0150710D01*
X0064415Y0150765D01*
X0064444Y0150817D01*
X0064477Y0150868D01*
X0064513Y0150917D01*
X0064551Y0150963D01*
X0064593Y0151007D01*
X0064637Y0151049D01*
X0064683Y0151087D01*
X0064732Y0151123D01*
X0064783Y0151156D01*
X0064835Y0151185D01*
X0064890Y0151212D01*
X0064945Y0151235D01*
X0065002Y0151255D01*
X0065061Y0151271D01*
X0065120Y0151284D01*
X0065179Y0151293D01*
X0065240Y0151298D01*
X0065300Y0151300D01*
X0066800Y0151300D01*
X0067300Y0150800D01*
X0066800Y0138800D02*
X0065300Y0138800D01*
X0065240Y0138798D01*
X0065179Y0138793D01*
X0065120Y0138784D01*
X0065061Y0138771D01*
X0065002Y0138755D01*
X0064945Y0138735D01*
X0064890Y0138712D01*
X0064835Y0138685D01*
X0064783Y0138656D01*
X0064732Y0138623D01*
X0064683Y0138587D01*
X0064637Y0138549D01*
X0064593Y0138507D01*
X0064551Y0138463D01*
X0064513Y0138417D01*
X0064477Y0138368D01*
X0064444Y0138317D01*
X0064415Y0138265D01*
X0064388Y0138210D01*
X0064365Y0138155D01*
X0064345Y0138098D01*
X0064329Y0138039D01*
X0064316Y0137980D01*
X0064307Y0137921D01*
X0064302Y0137860D01*
X0064300Y0137800D01*
X0064300Y0130800D01*
X0064302Y0130740D01*
X0064307Y0130679D01*
X0064316Y0130620D01*
X0064329Y0130561D01*
X0064345Y0130502D01*
X0064365Y0130445D01*
X0064388Y0130390D01*
X0064415Y0130335D01*
X0064444Y0130283D01*
X0064477Y0130232D01*
X0064513Y0130183D01*
X0064551Y0130137D01*
X0064593Y0130093D01*
X0064637Y0130051D01*
X0064683Y0130013D01*
X0064732Y0129977D01*
X0064783Y0129944D01*
X0064835Y0129915D01*
X0064890Y0129888D01*
X0064945Y0129865D01*
X0065002Y0129845D01*
X0065061Y0129829D01*
X0065120Y0129816D01*
X0065179Y0129807D01*
X0065240Y0129802D01*
X0065300Y0129800D01*
X0066800Y0129800D01*
X0067300Y0130300D01*
X0086300Y0130300D01*
X0086800Y0129800D01*
X0088300Y0129800D01*
X0088360Y0129802D01*
X0088421Y0129807D01*
X0088480Y0129816D01*
X0088539Y0129829D01*
X0088598Y0129845D01*
X0088655Y0129865D01*
X0088710Y0129888D01*
X0088765Y0129915D01*
X0088817Y0129944D01*
X0088868Y0129977D01*
X0088917Y0130013D01*
X0088963Y0130051D01*
X0089007Y0130093D01*
X0089049Y0130137D01*
X0089087Y0130183D01*
X0089123Y0130232D01*
X0089156Y0130283D01*
X0089185Y0130335D01*
X0089212Y0130390D01*
X0089235Y0130445D01*
X0089255Y0130502D01*
X0089271Y0130561D01*
X0089284Y0130620D01*
X0089293Y0130679D01*
X0089298Y0130740D01*
X0089300Y0130800D01*
X0089300Y0137800D01*
X0089298Y0137860D01*
X0089293Y0137921D01*
X0089284Y0137980D01*
X0089271Y0138039D01*
X0089255Y0138098D01*
X0089235Y0138155D01*
X0089212Y0138210D01*
X0089185Y0138265D01*
X0089156Y0138317D01*
X0089123Y0138368D01*
X0089087Y0138417D01*
X0089049Y0138463D01*
X0089007Y0138507D01*
X0088963Y0138549D01*
X0088917Y0138587D01*
X0088868Y0138623D01*
X0088817Y0138656D01*
X0088765Y0138685D01*
X0088710Y0138712D01*
X0088655Y0138735D01*
X0088598Y0138755D01*
X0088539Y0138771D01*
X0088480Y0138784D01*
X0088421Y0138793D01*
X0088360Y0138798D01*
X0088300Y0138800D01*
X0086800Y0138800D01*
X0086300Y0138300D01*
X0067300Y0138300D01*
X0066800Y0138800D01*
X0037300Y0079300D02*
X0034800Y0079300D01*
X0037300Y0079300D02*
X0037300Y0054300D01*
X0034800Y0054300D01*
X0039800Y0051800D02*
X0040300Y0052300D01*
X0040300Y0071300D01*
X0039800Y0071800D01*
X0039800Y0073300D01*
X0039802Y0073360D01*
X0039807Y0073421D01*
X0039816Y0073480D01*
X0039829Y0073539D01*
X0039845Y0073598D01*
X0039865Y0073655D01*
X0039888Y0073710D01*
X0039915Y0073765D01*
X0039944Y0073817D01*
X0039977Y0073868D01*
X0040013Y0073917D01*
X0040051Y0073963D01*
X0040093Y0074007D01*
X0040137Y0074049D01*
X0040183Y0074087D01*
X0040232Y0074123D01*
X0040283Y0074156D01*
X0040335Y0074185D01*
X0040390Y0074212D01*
X0040445Y0074235D01*
X0040502Y0074255D01*
X0040561Y0074271D01*
X0040620Y0074284D01*
X0040679Y0074293D01*
X0040740Y0074298D01*
X0040800Y0074300D01*
X0047800Y0074300D01*
X0047860Y0074298D01*
X0047921Y0074293D01*
X0047980Y0074284D01*
X0048039Y0074271D01*
X0048098Y0074255D01*
X0048155Y0074235D01*
X0048210Y0074212D01*
X0048265Y0074185D01*
X0048317Y0074156D01*
X0048368Y0074123D01*
X0048417Y0074087D01*
X0048463Y0074049D01*
X0048507Y0074007D01*
X0048549Y0073963D01*
X0048587Y0073917D01*
X0048623Y0073868D01*
X0048656Y0073817D01*
X0048685Y0073765D01*
X0048712Y0073710D01*
X0048735Y0073655D01*
X0048755Y0073598D01*
X0048771Y0073539D01*
X0048784Y0073480D01*
X0048793Y0073421D01*
X0048798Y0073360D01*
X0048800Y0073300D01*
X0048800Y0071800D01*
X0048300Y0071300D01*
X0048300Y0052300D01*
X0048800Y0051800D01*
X0048800Y0050300D01*
X0048798Y0050240D01*
X0048793Y0050179D01*
X0048784Y0050120D01*
X0048771Y0050061D01*
X0048755Y0050002D01*
X0048735Y0049945D01*
X0048712Y0049890D01*
X0048685Y0049835D01*
X0048656Y0049783D01*
X0048623Y0049732D01*
X0048587Y0049683D01*
X0048549Y0049637D01*
X0048507Y0049593D01*
X0048463Y0049551D01*
X0048417Y0049513D01*
X0048368Y0049477D01*
X0048317Y0049444D01*
X0048265Y0049415D01*
X0048210Y0049388D01*
X0048155Y0049365D01*
X0048098Y0049345D01*
X0048039Y0049329D01*
X0047980Y0049316D01*
X0047921Y0049307D01*
X0047860Y0049302D01*
X0047800Y0049300D01*
X0040800Y0049300D01*
X0040740Y0049302D01*
X0040679Y0049307D01*
X0040620Y0049316D01*
X0040561Y0049329D01*
X0040502Y0049345D01*
X0040445Y0049365D01*
X0040390Y0049388D01*
X0040335Y0049415D01*
X0040283Y0049444D01*
X0040232Y0049477D01*
X0040183Y0049513D01*
X0040137Y0049551D01*
X0040093Y0049593D01*
X0040051Y0049637D01*
X0040013Y0049683D01*
X0039977Y0049732D01*
X0039944Y0049783D01*
X0039915Y0049835D01*
X0039888Y0049890D01*
X0039865Y0049945D01*
X0039845Y0050002D01*
X0039829Y0050061D01*
X0039816Y0050120D01*
X0039807Y0050179D01*
X0039802Y0050240D01*
X0039800Y0050300D01*
X0039800Y0051800D01*
X0051800Y0050800D02*
X0051800Y0058300D01*
X0081800Y0058300D01*
X0081800Y0035300D01*
X0051800Y0035300D01*
X0051800Y0042800D01*
X0051926Y0042802D01*
X0052051Y0042808D01*
X0052176Y0042818D01*
X0052301Y0042832D01*
X0052426Y0042849D01*
X0052550Y0042871D01*
X0052673Y0042896D01*
X0052795Y0042926D01*
X0052916Y0042959D01*
X0053036Y0042996D01*
X0053155Y0043036D01*
X0053272Y0043081D01*
X0053389Y0043129D01*
X0053503Y0043181D01*
X0053616Y0043236D01*
X0053727Y0043295D01*
X0053836Y0043357D01*
X0053943Y0043423D01*
X0054048Y0043492D01*
X0054151Y0043564D01*
X0054252Y0043639D01*
X0054350Y0043718D01*
X0054445Y0043800D01*
X0054538Y0043884D01*
X0054628Y0043972D01*
X0054716Y0044062D01*
X0054800Y0044155D01*
X0054882Y0044250D01*
X0054961Y0044348D01*
X0055036Y0044449D01*
X0055108Y0044552D01*
X0055177Y0044657D01*
X0055243Y0044764D01*
X0055305Y0044873D01*
X0055364Y0044984D01*
X0055419Y0045097D01*
X0055471Y0045211D01*
X0055519Y0045328D01*
X0055564Y0045445D01*
X0055604Y0045564D01*
X0055641Y0045684D01*
X0055674Y0045805D01*
X0055704Y0045927D01*
X0055729Y0046050D01*
X0055751Y0046174D01*
X0055768Y0046299D01*
X0055782Y0046424D01*
X0055792Y0046549D01*
X0055798Y0046674D01*
X0055800Y0046800D01*
X0055798Y0046926D01*
X0055792Y0047051D01*
X0055782Y0047176D01*
X0055768Y0047301D01*
X0055751Y0047426D01*
X0055729Y0047550D01*
X0055704Y0047673D01*
X0055674Y0047795D01*
X0055641Y0047916D01*
X0055604Y0048036D01*
X0055564Y0048155D01*
X0055519Y0048272D01*
X0055471Y0048389D01*
X0055419Y0048503D01*
X0055364Y0048616D01*
X0055305Y0048727D01*
X0055243Y0048836D01*
X0055177Y0048943D01*
X0055108Y0049048D01*
X0055036Y0049151D01*
X0054961Y0049252D01*
X0054882Y0049350D01*
X0054800Y0049445D01*
X0054716Y0049538D01*
X0054628Y0049628D01*
X0054538Y0049716D01*
X0054445Y0049800D01*
X0054350Y0049882D01*
X0054252Y0049961D01*
X0054151Y0050036D01*
X0054048Y0050108D01*
X0053943Y0050177D01*
X0053836Y0050243D01*
X0053727Y0050305D01*
X0053616Y0050364D01*
X0053503Y0050419D01*
X0053389Y0050471D01*
X0053272Y0050519D01*
X0053155Y0050564D01*
X0053036Y0050604D01*
X0052916Y0050641D01*
X0052795Y0050674D01*
X0052673Y0050704D01*
X0052550Y0050729D01*
X0052426Y0050751D01*
X0052301Y0050768D01*
X0052176Y0050782D01*
X0052051Y0050792D01*
X0051926Y0050798D01*
X0051800Y0050800D01*
X0025800Y0072300D02*
X0021800Y0072300D01*
X0022300Y0071800D01*
X0023800Y0071800D01*
X0025300Y0071800D01*
X0025800Y0072300D01*
X0025300Y0071800D02*
X0024800Y0071300D01*
X0024300Y0070800D01*
X0023300Y0070800D01*
X0022800Y0071300D01*
X0022300Y0071800D01*
X0022800Y0071300D02*
X0024800Y0071300D01*
X0024300Y0070800D02*
X0023800Y0070300D01*
X0023800Y0071800D01*
X0023800Y0077800D01*
X0023800Y0079300D02*
X0020600Y0079300D01*
X0020600Y0054300D01*
X0023800Y0054300D01*
X0016300Y0055300D02*
X0016300Y0056800D01*
X0015800Y0057300D01*
X0015800Y0076300D01*
X0016300Y0076800D01*
X0016300Y0078300D01*
X0016298Y0078360D01*
X0016293Y0078421D01*
X0016284Y0078480D01*
X0016271Y0078539D01*
X0016255Y0078598D01*
X0016235Y0078655D01*
X0016212Y0078710D01*
X0016185Y0078765D01*
X0016156Y0078817D01*
X0016123Y0078868D01*
X0016087Y0078917D01*
X0016049Y0078963D01*
X0016007Y0079007D01*
X0015963Y0079049D01*
X0015917Y0079087D01*
X0015868Y0079123D01*
X0015817Y0079156D01*
X0015765Y0079185D01*
X0015710Y0079212D01*
X0015655Y0079235D01*
X0015598Y0079255D01*
X0015539Y0079271D01*
X0015480Y0079284D01*
X0015421Y0079293D01*
X0015360Y0079298D01*
X0015300Y0079300D01*
X0008300Y0079300D01*
X0008240Y0079298D01*
X0008179Y0079293D01*
X0008120Y0079284D01*
X0008061Y0079271D01*
X0008002Y0079255D01*
X0007945Y0079235D01*
X0007890Y0079212D01*
X0007835Y0079185D01*
X0007783Y0079156D01*
X0007732Y0079123D01*
X0007683Y0079087D01*
X0007637Y0079049D01*
X0007593Y0079007D01*
X0007551Y0078963D01*
X0007513Y0078917D01*
X0007477Y0078868D01*
X0007444Y0078817D01*
X0007415Y0078765D01*
X0007388Y0078710D01*
X0007365Y0078655D01*
X0007345Y0078598D01*
X0007329Y0078539D01*
X0007316Y0078480D01*
X0007307Y0078421D01*
X0007302Y0078360D01*
X0007300Y0078300D01*
X0007300Y0076800D01*
X0007800Y0076300D01*
X0007800Y0057300D01*
X0007300Y0056800D01*
X0007300Y0055300D01*
X0007302Y0055240D01*
X0007307Y0055179D01*
X0007316Y0055120D01*
X0007329Y0055061D01*
X0007345Y0055002D01*
X0007365Y0054945D01*
X0007388Y0054890D01*
X0007415Y0054835D01*
X0007444Y0054783D01*
X0007477Y0054732D01*
X0007513Y0054683D01*
X0007551Y0054637D01*
X0007593Y0054593D01*
X0007637Y0054551D01*
X0007683Y0054513D01*
X0007732Y0054477D01*
X0007783Y0054444D01*
X0007835Y0054415D01*
X0007890Y0054388D01*
X0007945Y0054365D01*
X0008002Y0054345D01*
X0008061Y0054329D01*
X0008120Y0054316D01*
X0008179Y0054307D01*
X0008240Y0054302D01*
X0008300Y0054300D01*
X0015300Y0054300D01*
X0015360Y0054302D01*
X0015421Y0054307D01*
X0015480Y0054316D01*
X0015539Y0054329D01*
X0015598Y0054345D01*
X0015655Y0054365D01*
X0015710Y0054388D01*
X0015765Y0054415D01*
X0015817Y0054444D01*
X0015868Y0054477D01*
X0015917Y0054513D01*
X0015963Y0054551D01*
X0016007Y0054593D01*
X0016049Y0054637D01*
X0016087Y0054683D01*
X0016123Y0054732D01*
X0016156Y0054783D01*
X0016185Y0054835D01*
X0016212Y0054890D01*
X0016235Y0054945D01*
X0016255Y0055002D01*
X0016271Y0055061D01*
X0016284Y0055120D01*
X0016293Y0055179D01*
X0016298Y0055240D01*
X0016300Y0055300D01*
X0023800Y0070300D02*
X0023300Y0070800D01*
X0102300Y0061800D02*
X0102300Y0060300D01*
X0102302Y0060240D01*
X0102307Y0060179D01*
X0102316Y0060120D01*
X0102329Y0060061D01*
X0102345Y0060002D01*
X0102365Y0059945D01*
X0102388Y0059890D01*
X0102415Y0059835D01*
X0102444Y0059783D01*
X0102477Y0059732D01*
X0102513Y0059683D01*
X0102551Y0059637D01*
X0102593Y0059593D01*
X0102637Y0059551D01*
X0102683Y0059513D01*
X0102732Y0059477D01*
X0102783Y0059444D01*
X0102835Y0059415D01*
X0102890Y0059388D01*
X0102945Y0059365D01*
X0103002Y0059345D01*
X0103061Y0059329D01*
X0103120Y0059316D01*
X0103179Y0059307D01*
X0103240Y0059302D01*
X0103300Y0059300D01*
X0110300Y0059300D01*
X0110360Y0059302D01*
X0110421Y0059307D01*
X0110480Y0059316D01*
X0110539Y0059329D01*
X0110598Y0059345D01*
X0110655Y0059365D01*
X0110710Y0059388D01*
X0110765Y0059415D01*
X0110817Y0059444D01*
X0110868Y0059477D01*
X0110917Y0059513D01*
X0110963Y0059551D01*
X0111007Y0059593D01*
X0111049Y0059637D01*
X0111087Y0059683D01*
X0111123Y0059732D01*
X0111156Y0059783D01*
X0111185Y0059835D01*
X0111212Y0059890D01*
X0111235Y0059945D01*
X0111255Y0060002D01*
X0111271Y0060061D01*
X0111284Y0060120D01*
X0111293Y0060179D01*
X0111298Y0060240D01*
X0111300Y0060300D01*
X0111300Y0061800D01*
X0110800Y0062300D01*
X0110800Y0081300D01*
X0111300Y0081800D01*
X0111300Y0083300D01*
X0111298Y0083360D01*
X0111293Y0083421D01*
X0111284Y0083480D01*
X0111271Y0083539D01*
X0111255Y0083598D01*
X0111235Y0083655D01*
X0111212Y0083710D01*
X0111185Y0083765D01*
X0111156Y0083817D01*
X0111123Y0083868D01*
X0111087Y0083917D01*
X0111049Y0083963D01*
X0111007Y0084007D01*
X0110963Y0084049D01*
X0110917Y0084087D01*
X0110868Y0084123D01*
X0110817Y0084156D01*
X0110765Y0084185D01*
X0110710Y0084212D01*
X0110655Y0084235D01*
X0110598Y0084255D01*
X0110539Y0084271D01*
X0110480Y0084284D01*
X0110421Y0084293D01*
X0110360Y0084298D01*
X0110300Y0084300D01*
X0103300Y0084300D01*
X0103240Y0084298D01*
X0103179Y0084293D01*
X0103120Y0084284D01*
X0103061Y0084271D01*
X0103002Y0084255D01*
X0102945Y0084235D01*
X0102890Y0084212D01*
X0102835Y0084185D01*
X0102783Y0084156D01*
X0102732Y0084123D01*
X0102683Y0084087D01*
X0102637Y0084049D01*
X0102593Y0084007D01*
X0102551Y0083963D01*
X0102513Y0083917D01*
X0102477Y0083868D01*
X0102444Y0083817D01*
X0102415Y0083765D01*
X0102388Y0083710D01*
X0102365Y0083655D01*
X0102345Y0083598D01*
X0102329Y0083539D01*
X0102316Y0083480D01*
X0102307Y0083421D01*
X0102302Y0083360D01*
X0102300Y0083300D01*
X0102300Y0081800D01*
X0102800Y0081300D01*
X0102800Y0062300D01*
X0102300Y0061800D01*
D14*
X0113046Y0064842D02*
X0113046Y0067094D01*
X0113797Y0067845D01*
X0115298Y0067845D01*
X0116049Y0067094D01*
X0116049Y0064842D01*
X0117550Y0064842D02*
X0113046Y0064842D01*
X0113797Y0069446D02*
X0113046Y0070197D01*
X0113046Y0071698D01*
X0113797Y0072449D01*
X0114547Y0072449D01*
X0115298Y0071698D01*
X0116049Y0072449D01*
X0116799Y0072449D01*
X0117550Y0071698D01*
X0117550Y0070197D01*
X0116799Y0069446D01*
X0117550Y0067845D02*
X0116049Y0066343D01*
X0115298Y0070947D02*
X0115298Y0071698D01*
X0115726Y0106050D02*
X0112723Y0106050D01*
X0114224Y0106050D02*
X0114224Y0110554D01*
X0112723Y0109053D01*
X0111122Y0109803D02*
X0110371Y0110554D01*
X0108870Y0110554D01*
X0108119Y0109803D01*
X0108119Y0106801D01*
X0108870Y0106050D01*
X0110371Y0106050D01*
X0111122Y0106801D01*
X0106551Y0106050D02*
X0105050Y0106050D01*
X0105801Y0106050D02*
X0105801Y0110554D01*
X0106551Y0110554D02*
X0105050Y0110554D01*
X0105553Y0133050D02*
X0104051Y0134551D01*
X0104802Y0134551D02*
X0102550Y0134551D01*
X0102550Y0133050D02*
X0102550Y0137554D01*
X0104802Y0137554D01*
X0105553Y0136803D01*
X0105553Y0135302D01*
X0104802Y0134551D01*
X0107154Y0134551D02*
X0107154Y0133801D01*
X0107905Y0133050D01*
X0109406Y0133050D01*
X0110156Y0133801D01*
X0110156Y0134551D01*
X0109406Y0135302D01*
X0107905Y0135302D01*
X0107154Y0136053D01*
X0107154Y0136803D01*
X0107905Y0137554D01*
X0109406Y0137554D01*
X0110156Y0136803D01*
X0110156Y0136053D01*
X0109406Y0135302D01*
X0107905Y0135302D02*
X0107154Y0134551D01*
X0107905Y0148050D02*
X0107154Y0148801D01*
X0107154Y0150302D01*
X0109406Y0150302D01*
X0110156Y0149551D01*
X0110156Y0148801D01*
X0109406Y0148050D01*
X0107905Y0148050D01*
X0107154Y0150302D02*
X0108655Y0151803D01*
X0110156Y0152554D01*
X0105553Y0151803D02*
X0105553Y0150302D01*
X0104802Y0149551D01*
X0102550Y0149551D01*
X0102550Y0148050D02*
X0102550Y0152554D01*
X0104802Y0152554D01*
X0105553Y0151803D01*
X0104051Y0149551D02*
X0105553Y0148050D01*
X0106010Y0166550D02*
X0104508Y0166550D01*
X0103758Y0167301D01*
X0106760Y0170303D01*
X0106760Y0167301D01*
X0106010Y0166550D01*
X0106760Y0170303D02*
X0106010Y0171054D01*
X0104508Y0171054D01*
X0103758Y0170303D01*
X0103758Y0167301D01*
X0102156Y0166550D02*
X0099154Y0166550D01*
X0100655Y0166550D02*
X0100655Y0171054D01*
X0099154Y0169553D01*
X0097553Y0170303D02*
X0097553Y0168802D01*
X0096802Y0168051D01*
X0094550Y0168051D01*
X0094550Y0166550D02*
X0094550Y0171054D01*
X0096802Y0171054D01*
X0097553Y0170303D01*
X0096051Y0168051D02*
X0097553Y0166550D01*
X0056199Y0158550D02*
X0053196Y0158550D01*
X0054697Y0158550D02*
X0054697Y0163054D01*
X0053196Y0161553D01*
X0051595Y0162303D02*
X0051595Y0160802D01*
X0050844Y0160051D01*
X0048592Y0160051D01*
X0048592Y0158550D02*
X0048592Y0163054D01*
X0050844Y0163054D01*
X0051595Y0162303D01*
X0050093Y0160051D02*
X0051595Y0158550D01*
X0037656Y0137554D02*
X0034654Y0137554D01*
X0034654Y0135302D01*
X0036155Y0136053D01*
X0036906Y0136053D01*
X0037656Y0135302D01*
X0037656Y0133801D01*
X0036906Y0133050D01*
X0035405Y0133050D01*
X0034654Y0133801D01*
X0033053Y0133050D02*
X0031551Y0134551D01*
X0032302Y0134551D02*
X0030050Y0134551D01*
X0030050Y0133050D02*
X0030050Y0137554D01*
X0032302Y0137554D01*
X0033053Y0136803D01*
X0033053Y0135302D01*
X0032302Y0134551D01*
X0026156Y0129803D02*
X0026156Y0129053D01*
X0025406Y0128302D01*
X0026156Y0127551D01*
X0026156Y0126801D01*
X0025406Y0126050D01*
X0023905Y0126050D01*
X0023154Y0126801D01*
X0021553Y0126801D02*
X0020802Y0126050D01*
X0019301Y0126050D01*
X0018550Y0126801D01*
X0018550Y0129803D01*
X0019301Y0130554D01*
X0020802Y0130554D01*
X0021553Y0129803D01*
X0023154Y0129803D02*
X0023905Y0130554D01*
X0025406Y0130554D01*
X0026156Y0129803D01*
X0025406Y0128302D02*
X0024655Y0128302D01*
X0010550Y0155050D02*
X0006046Y0155050D01*
X0006046Y0157302D01*
X0006797Y0158053D01*
X0008298Y0158053D01*
X0009049Y0157302D01*
X0009049Y0155050D01*
X0009049Y0156551D02*
X0010550Y0158053D01*
X0010550Y0159654D02*
X0009799Y0159654D01*
X0006797Y0162656D01*
X0006046Y0162656D01*
X0006046Y0159654D01*
X0017093Y0193050D02*
X0018594Y0193050D01*
X0019345Y0193801D01*
X0020946Y0193050D02*
X0023949Y0196053D01*
X0023949Y0196803D01*
X0023198Y0197554D01*
X0021697Y0197554D01*
X0020946Y0196803D01*
X0019345Y0196803D02*
X0018594Y0197554D01*
X0017093Y0197554D01*
X0016342Y0196803D01*
X0016342Y0193801D01*
X0017093Y0193050D01*
X0020946Y0193050D02*
X0023949Y0193050D01*
X0045678Y0205011D02*
X0045678Y0208479D01*
X0051297Y0074949D02*
X0050546Y0074198D01*
X0050546Y0072697D01*
X0051297Y0071946D01*
X0051297Y0070345D02*
X0050546Y0069594D01*
X0050546Y0067342D01*
X0055050Y0067342D01*
X0053549Y0067342D02*
X0053549Y0069594D01*
X0052798Y0070345D01*
X0051297Y0070345D01*
X0053549Y0068843D02*
X0055050Y0070345D01*
X0055050Y0071946D02*
X0052047Y0074949D01*
X0051297Y0074949D01*
X0055050Y0074949D02*
X0055050Y0071946D01*
X0048698Y0038054D02*
X0047197Y0038054D01*
X0046446Y0037303D01*
X0044845Y0037303D02*
X0044094Y0038054D01*
X0042593Y0038054D01*
X0041842Y0037303D01*
X0041842Y0034301D01*
X0042593Y0033550D01*
X0044094Y0033550D01*
X0044845Y0034301D01*
X0046446Y0033550D02*
X0049449Y0036553D01*
X0049449Y0037303D01*
X0048698Y0038054D01*
X0049449Y0033550D02*
X0046446Y0033550D01*
X0040274Y0033550D02*
X0038773Y0033550D01*
X0039523Y0033550D02*
X0039523Y0038054D01*
X0038773Y0038054D02*
X0040274Y0038054D01*
X0032156Y0044801D02*
X0032156Y0047803D01*
X0031406Y0048554D01*
X0029905Y0048554D01*
X0029154Y0047803D01*
X0029154Y0047053D01*
X0029905Y0046302D01*
X0032156Y0046302D01*
X0032156Y0044801D02*
X0031406Y0044050D01*
X0029905Y0044050D01*
X0029154Y0044801D01*
X0027553Y0044050D02*
X0026051Y0045551D01*
X0026802Y0045551D02*
X0024550Y0045551D01*
X0024550Y0044050D02*
X0024550Y0048554D01*
X0026802Y0048554D01*
X0027553Y0047803D01*
X0027553Y0046302D01*
X0026802Y0045551D01*
X0012656Y0040302D02*
X0009654Y0040302D01*
X0011906Y0042554D01*
X0011906Y0038050D01*
X0008053Y0038050D02*
X0006551Y0039551D01*
X0007302Y0039551D02*
X0005050Y0039551D01*
X0005050Y0038050D02*
X0005050Y0042554D01*
X0007302Y0042554D01*
X0008053Y0041803D01*
X0008053Y0040302D01*
X0007302Y0039551D01*
D15*
X0053532Y0188690D02*
X0053532Y0203257D01*
X0070068Y0203257D02*
X0070068Y0188690D01*
D16*
X0080730Y0210343D02*
X0042870Y0210343D01*
X0042870Y0235146D01*
X0042902Y0235146D01*
X0042902Y0261131D01*
X0080698Y0261131D01*
X0080698Y0235146D01*
X0080730Y0235146D01*
X0080730Y0210343D01*
D17*
X0081403Y0204363D02*
X0081403Y0201294D01*
X0081403Y0202828D02*
X0076799Y0202828D01*
X0078334Y0201294D01*
X0076799Y0199759D02*
X0081403Y0199759D01*
X0076799Y0196690D01*
X0081403Y0196690D01*
X0080636Y0195155D02*
X0081403Y0194388D01*
X0081403Y0192853D01*
X0080636Y0192086D01*
X0077567Y0192086D01*
X0076799Y0192853D01*
X0076799Y0194388D01*
X0077567Y0195155D01*
D18*
X0043050Y0176000D03*
X0031800Y0176000D03*
X0019300Y0176000D03*
X0019300Y0147600D03*
X0031800Y0147600D03*
X0043050Y0147600D03*
X0011800Y0081000D03*
X0011800Y0052600D03*
X0044300Y0047600D03*
X0044300Y0076000D03*
X0106800Y0086000D03*
X0106800Y0057600D03*
D19*
X0091000Y0134300D03*
X0091000Y0146800D03*
X0062600Y0146800D03*
X0062600Y0134300D03*
M02*
