G75*
%MOIN*%
%OFA0B0*%
%FSLAX25Y25*%
%IPPOS*%
%LPD*%
%AMOC8*
5,1,8,0,0,1.08239X$1,22.5*
%
%ADD10C,0.00000*%
D10*
X0001800Y0001800D02*
X0001800Y0219261D01*
X0123001Y0219261D01*
X0123001Y0001800D01*
X0001800Y0001800D01*
X0010501Y0031800D02*
X0010503Y0031958D01*
X0010509Y0032116D01*
X0010519Y0032274D01*
X0010533Y0032432D01*
X0010551Y0032589D01*
X0010572Y0032746D01*
X0010598Y0032902D01*
X0010628Y0033058D01*
X0010661Y0033213D01*
X0010699Y0033366D01*
X0010740Y0033519D01*
X0010785Y0033671D01*
X0010834Y0033822D01*
X0010887Y0033971D01*
X0010943Y0034119D01*
X0011003Y0034265D01*
X0011067Y0034410D01*
X0011135Y0034553D01*
X0011206Y0034695D01*
X0011280Y0034835D01*
X0011358Y0034972D01*
X0011440Y0035108D01*
X0011524Y0035242D01*
X0011613Y0035373D01*
X0011704Y0035502D01*
X0011799Y0035629D01*
X0011896Y0035754D01*
X0011997Y0035876D01*
X0012101Y0035995D01*
X0012208Y0036112D01*
X0012318Y0036226D01*
X0012431Y0036337D01*
X0012546Y0036446D01*
X0012664Y0036551D01*
X0012785Y0036653D01*
X0012908Y0036753D01*
X0013034Y0036849D01*
X0013162Y0036942D01*
X0013292Y0037032D01*
X0013425Y0037118D01*
X0013560Y0037202D01*
X0013696Y0037281D01*
X0013835Y0037358D01*
X0013976Y0037430D01*
X0014118Y0037500D01*
X0014262Y0037565D01*
X0014408Y0037627D01*
X0014555Y0037685D01*
X0014704Y0037740D01*
X0014854Y0037791D01*
X0015005Y0037838D01*
X0015157Y0037881D01*
X0015310Y0037920D01*
X0015465Y0037956D01*
X0015620Y0037987D01*
X0015776Y0038015D01*
X0015932Y0038039D01*
X0016089Y0038059D01*
X0016247Y0038075D01*
X0016404Y0038087D01*
X0016563Y0038095D01*
X0016721Y0038099D01*
X0016879Y0038099D01*
X0017037Y0038095D01*
X0017196Y0038087D01*
X0017353Y0038075D01*
X0017511Y0038059D01*
X0017668Y0038039D01*
X0017824Y0038015D01*
X0017980Y0037987D01*
X0018135Y0037956D01*
X0018290Y0037920D01*
X0018443Y0037881D01*
X0018595Y0037838D01*
X0018746Y0037791D01*
X0018896Y0037740D01*
X0019045Y0037685D01*
X0019192Y0037627D01*
X0019338Y0037565D01*
X0019482Y0037500D01*
X0019624Y0037430D01*
X0019765Y0037358D01*
X0019904Y0037281D01*
X0020040Y0037202D01*
X0020175Y0037118D01*
X0020308Y0037032D01*
X0020438Y0036942D01*
X0020566Y0036849D01*
X0020692Y0036753D01*
X0020815Y0036653D01*
X0020936Y0036551D01*
X0021054Y0036446D01*
X0021169Y0036337D01*
X0021282Y0036226D01*
X0021392Y0036112D01*
X0021499Y0035995D01*
X0021603Y0035876D01*
X0021704Y0035754D01*
X0021801Y0035629D01*
X0021896Y0035502D01*
X0021987Y0035373D01*
X0022076Y0035242D01*
X0022160Y0035108D01*
X0022242Y0034972D01*
X0022320Y0034835D01*
X0022394Y0034695D01*
X0022465Y0034553D01*
X0022533Y0034410D01*
X0022597Y0034265D01*
X0022657Y0034119D01*
X0022713Y0033971D01*
X0022766Y0033822D01*
X0022815Y0033671D01*
X0022860Y0033519D01*
X0022901Y0033366D01*
X0022939Y0033213D01*
X0022972Y0033058D01*
X0023002Y0032902D01*
X0023028Y0032746D01*
X0023049Y0032589D01*
X0023067Y0032432D01*
X0023081Y0032274D01*
X0023091Y0032116D01*
X0023097Y0031958D01*
X0023099Y0031800D01*
X0023097Y0031642D01*
X0023091Y0031484D01*
X0023081Y0031326D01*
X0023067Y0031168D01*
X0023049Y0031011D01*
X0023028Y0030854D01*
X0023002Y0030698D01*
X0022972Y0030542D01*
X0022939Y0030387D01*
X0022901Y0030234D01*
X0022860Y0030081D01*
X0022815Y0029929D01*
X0022766Y0029778D01*
X0022713Y0029629D01*
X0022657Y0029481D01*
X0022597Y0029335D01*
X0022533Y0029190D01*
X0022465Y0029047D01*
X0022394Y0028905D01*
X0022320Y0028765D01*
X0022242Y0028628D01*
X0022160Y0028492D01*
X0022076Y0028358D01*
X0021987Y0028227D01*
X0021896Y0028098D01*
X0021801Y0027971D01*
X0021704Y0027846D01*
X0021603Y0027724D01*
X0021499Y0027605D01*
X0021392Y0027488D01*
X0021282Y0027374D01*
X0021169Y0027263D01*
X0021054Y0027154D01*
X0020936Y0027049D01*
X0020815Y0026947D01*
X0020692Y0026847D01*
X0020566Y0026751D01*
X0020438Y0026658D01*
X0020308Y0026568D01*
X0020175Y0026482D01*
X0020040Y0026398D01*
X0019904Y0026319D01*
X0019765Y0026242D01*
X0019624Y0026170D01*
X0019482Y0026100D01*
X0019338Y0026035D01*
X0019192Y0025973D01*
X0019045Y0025915D01*
X0018896Y0025860D01*
X0018746Y0025809D01*
X0018595Y0025762D01*
X0018443Y0025719D01*
X0018290Y0025680D01*
X0018135Y0025644D01*
X0017980Y0025613D01*
X0017824Y0025585D01*
X0017668Y0025561D01*
X0017511Y0025541D01*
X0017353Y0025525D01*
X0017196Y0025513D01*
X0017037Y0025505D01*
X0016879Y0025501D01*
X0016721Y0025501D01*
X0016563Y0025505D01*
X0016404Y0025513D01*
X0016247Y0025525D01*
X0016089Y0025541D01*
X0015932Y0025561D01*
X0015776Y0025585D01*
X0015620Y0025613D01*
X0015465Y0025644D01*
X0015310Y0025680D01*
X0015157Y0025719D01*
X0015005Y0025762D01*
X0014854Y0025809D01*
X0014704Y0025860D01*
X0014555Y0025915D01*
X0014408Y0025973D01*
X0014262Y0026035D01*
X0014118Y0026100D01*
X0013976Y0026170D01*
X0013835Y0026242D01*
X0013696Y0026319D01*
X0013560Y0026398D01*
X0013425Y0026482D01*
X0013292Y0026568D01*
X0013162Y0026658D01*
X0013034Y0026751D01*
X0012908Y0026847D01*
X0012785Y0026947D01*
X0012664Y0027049D01*
X0012546Y0027154D01*
X0012431Y0027263D01*
X0012318Y0027374D01*
X0012208Y0027488D01*
X0012101Y0027605D01*
X0011997Y0027724D01*
X0011896Y0027846D01*
X0011799Y0027971D01*
X0011704Y0028098D01*
X0011613Y0028227D01*
X0011524Y0028358D01*
X0011440Y0028492D01*
X0011358Y0028628D01*
X0011280Y0028765D01*
X0011206Y0028905D01*
X0011135Y0029047D01*
X0011067Y0029190D01*
X0011003Y0029335D01*
X0010943Y0029481D01*
X0010887Y0029629D01*
X0010834Y0029778D01*
X0010785Y0029929D01*
X0010740Y0030081D01*
X0010699Y0030234D01*
X0010661Y0030387D01*
X0010628Y0030542D01*
X0010598Y0030698D01*
X0010572Y0030854D01*
X0010551Y0031011D01*
X0010533Y0031168D01*
X0010519Y0031326D01*
X0010509Y0031484D01*
X0010503Y0031642D01*
X0010501Y0031800D01*
X0100501Y0031800D02*
X0100503Y0031958D01*
X0100509Y0032116D01*
X0100519Y0032274D01*
X0100533Y0032432D01*
X0100551Y0032589D01*
X0100572Y0032746D01*
X0100598Y0032902D01*
X0100628Y0033058D01*
X0100661Y0033213D01*
X0100699Y0033366D01*
X0100740Y0033519D01*
X0100785Y0033671D01*
X0100834Y0033822D01*
X0100887Y0033971D01*
X0100943Y0034119D01*
X0101003Y0034265D01*
X0101067Y0034410D01*
X0101135Y0034553D01*
X0101206Y0034695D01*
X0101280Y0034835D01*
X0101358Y0034972D01*
X0101440Y0035108D01*
X0101524Y0035242D01*
X0101613Y0035373D01*
X0101704Y0035502D01*
X0101799Y0035629D01*
X0101896Y0035754D01*
X0101997Y0035876D01*
X0102101Y0035995D01*
X0102208Y0036112D01*
X0102318Y0036226D01*
X0102431Y0036337D01*
X0102546Y0036446D01*
X0102664Y0036551D01*
X0102785Y0036653D01*
X0102908Y0036753D01*
X0103034Y0036849D01*
X0103162Y0036942D01*
X0103292Y0037032D01*
X0103425Y0037118D01*
X0103560Y0037202D01*
X0103696Y0037281D01*
X0103835Y0037358D01*
X0103976Y0037430D01*
X0104118Y0037500D01*
X0104262Y0037565D01*
X0104408Y0037627D01*
X0104555Y0037685D01*
X0104704Y0037740D01*
X0104854Y0037791D01*
X0105005Y0037838D01*
X0105157Y0037881D01*
X0105310Y0037920D01*
X0105465Y0037956D01*
X0105620Y0037987D01*
X0105776Y0038015D01*
X0105932Y0038039D01*
X0106089Y0038059D01*
X0106247Y0038075D01*
X0106404Y0038087D01*
X0106563Y0038095D01*
X0106721Y0038099D01*
X0106879Y0038099D01*
X0107037Y0038095D01*
X0107196Y0038087D01*
X0107353Y0038075D01*
X0107511Y0038059D01*
X0107668Y0038039D01*
X0107824Y0038015D01*
X0107980Y0037987D01*
X0108135Y0037956D01*
X0108290Y0037920D01*
X0108443Y0037881D01*
X0108595Y0037838D01*
X0108746Y0037791D01*
X0108896Y0037740D01*
X0109045Y0037685D01*
X0109192Y0037627D01*
X0109338Y0037565D01*
X0109482Y0037500D01*
X0109624Y0037430D01*
X0109765Y0037358D01*
X0109904Y0037281D01*
X0110040Y0037202D01*
X0110175Y0037118D01*
X0110308Y0037032D01*
X0110438Y0036942D01*
X0110566Y0036849D01*
X0110692Y0036753D01*
X0110815Y0036653D01*
X0110936Y0036551D01*
X0111054Y0036446D01*
X0111169Y0036337D01*
X0111282Y0036226D01*
X0111392Y0036112D01*
X0111499Y0035995D01*
X0111603Y0035876D01*
X0111704Y0035754D01*
X0111801Y0035629D01*
X0111896Y0035502D01*
X0111987Y0035373D01*
X0112076Y0035242D01*
X0112160Y0035108D01*
X0112242Y0034972D01*
X0112320Y0034835D01*
X0112394Y0034695D01*
X0112465Y0034553D01*
X0112533Y0034410D01*
X0112597Y0034265D01*
X0112657Y0034119D01*
X0112713Y0033971D01*
X0112766Y0033822D01*
X0112815Y0033671D01*
X0112860Y0033519D01*
X0112901Y0033366D01*
X0112939Y0033213D01*
X0112972Y0033058D01*
X0113002Y0032902D01*
X0113028Y0032746D01*
X0113049Y0032589D01*
X0113067Y0032432D01*
X0113081Y0032274D01*
X0113091Y0032116D01*
X0113097Y0031958D01*
X0113099Y0031800D01*
X0113097Y0031642D01*
X0113091Y0031484D01*
X0113081Y0031326D01*
X0113067Y0031168D01*
X0113049Y0031011D01*
X0113028Y0030854D01*
X0113002Y0030698D01*
X0112972Y0030542D01*
X0112939Y0030387D01*
X0112901Y0030234D01*
X0112860Y0030081D01*
X0112815Y0029929D01*
X0112766Y0029778D01*
X0112713Y0029629D01*
X0112657Y0029481D01*
X0112597Y0029335D01*
X0112533Y0029190D01*
X0112465Y0029047D01*
X0112394Y0028905D01*
X0112320Y0028765D01*
X0112242Y0028628D01*
X0112160Y0028492D01*
X0112076Y0028358D01*
X0111987Y0028227D01*
X0111896Y0028098D01*
X0111801Y0027971D01*
X0111704Y0027846D01*
X0111603Y0027724D01*
X0111499Y0027605D01*
X0111392Y0027488D01*
X0111282Y0027374D01*
X0111169Y0027263D01*
X0111054Y0027154D01*
X0110936Y0027049D01*
X0110815Y0026947D01*
X0110692Y0026847D01*
X0110566Y0026751D01*
X0110438Y0026658D01*
X0110308Y0026568D01*
X0110175Y0026482D01*
X0110040Y0026398D01*
X0109904Y0026319D01*
X0109765Y0026242D01*
X0109624Y0026170D01*
X0109482Y0026100D01*
X0109338Y0026035D01*
X0109192Y0025973D01*
X0109045Y0025915D01*
X0108896Y0025860D01*
X0108746Y0025809D01*
X0108595Y0025762D01*
X0108443Y0025719D01*
X0108290Y0025680D01*
X0108135Y0025644D01*
X0107980Y0025613D01*
X0107824Y0025585D01*
X0107668Y0025561D01*
X0107511Y0025541D01*
X0107353Y0025525D01*
X0107196Y0025513D01*
X0107037Y0025505D01*
X0106879Y0025501D01*
X0106721Y0025501D01*
X0106563Y0025505D01*
X0106404Y0025513D01*
X0106247Y0025525D01*
X0106089Y0025541D01*
X0105932Y0025561D01*
X0105776Y0025585D01*
X0105620Y0025613D01*
X0105465Y0025644D01*
X0105310Y0025680D01*
X0105157Y0025719D01*
X0105005Y0025762D01*
X0104854Y0025809D01*
X0104704Y0025860D01*
X0104555Y0025915D01*
X0104408Y0025973D01*
X0104262Y0026035D01*
X0104118Y0026100D01*
X0103976Y0026170D01*
X0103835Y0026242D01*
X0103696Y0026319D01*
X0103560Y0026398D01*
X0103425Y0026482D01*
X0103292Y0026568D01*
X0103162Y0026658D01*
X0103034Y0026751D01*
X0102908Y0026847D01*
X0102785Y0026947D01*
X0102664Y0027049D01*
X0102546Y0027154D01*
X0102431Y0027263D01*
X0102318Y0027374D01*
X0102208Y0027488D01*
X0102101Y0027605D01*
X0101997Y0027724D01*
X0101896Y0027846D01*
X0101799Y0027971D01*
X0101704Y0028098D01*
X0101613Y0028227D01*
X0101524Y0028358D01*
X0101440Y0028492D01*
X0101358Y0028628D01*
X0101280Y0028765D01*
X0101206Y0028905D01*
X0101135Y0029047D01*
X0101067Y0029190D01*
X0101003Y0029335D01*
X0100943Y0029481D01*
X0100887Y0029629D01*
X0100834Y0029778D01*
X0100785Y0029929D01*
X0100740Y0030081D01*
X0100699Y0030234D01*
X0100661Y0030387D01*
X0100628Y0030542D01*
X0100598Y0030698D01*
X0100572Y0030854D01*
X0100551Y0031011D01*
X0100533Y0031168D01*
X0100519Y0031326D01*
X0100509Y0031484D01*
X0100503Y0031642D01*
X0100501Y0031800D01*
M02*
